<?xml version="1.0" standalone="no"?>
<!DOCTYPE svg PUBLIC "-//W3C//DTD SVG 20010904//EN" "http://www.w3.org/TR/2001/REC-SVG-20010904/DTD/svg10.dtd">
<svg version="1.0" xmlns="http://www.w3.org/2000/svg" width="480.000000pt" height="360.000000pt"
    viewBox="0 0 480.000000 360.000000" preserveAspectRatio="xMidYMid meet">

    <g transform="translate(0.000000,360.000000) scale(0.100000,-0.100000)" fill="#fff" stroke="none">
        <path d="M3987 3568 c-31 -11 -44 -46 -28 -76 16 -30 48 -37 77 -17 19 12 24
23 22 47 -4 40 -33 59 -71 46z" />
        <path d="M4144 3555 c-27 -27 -26 -59 4 -82 36 -29 92 0 92 47 0 18 -8 34 -22
44 -31 22 -45 20 -74 -9z" />
        <path d="M4317 3562 c-37 -40 -9 -102 46 -102 28 0 57 32 57 62 0 25 -36 58
-63 58 -13 0 -31 -8 -40 -18z" />
        <path d="M4486 3558 c-32 -45 -7 -98 45 -98 22 0 25 -4 25 -35 0 -30 -3 -35
-23 -35 -30 0 -63 -33 -63 -63 0 -30 32 -59 63 -59 20 0 23 -6 23 -34 0 -25
-4 -34 -17 -34 -10 0 -25 -3 -34 -6 -13 -6 -14 -3 -4 19 23 52 -40 103 -88 72
-32 -21 -39 -42 -26 -76 10 -26 9 -27 -8 -16 -30 18 -73 -10 -77 -50 -4 -38
19 -63 58 -63 35 0 65 38 57 72 -5 20 -2 23 27 23 32 0 34 -2 29 -31 -4 -25 0
-35 23 -53 16 -12 35 -20 44 -18 12 3 15 -4 15 -32 0 -34 -2 -36 -31 -37 -30
0 -31 1 -22 22 8 18 7 29 -6 49 -32 49 -116 23 -116 -37 0 -29 38 -60 68 -56
25 4 27 1 27 -37 0 -39 -1 -41 -28 -37 -55 8 -85 -48 -51 -97 13 -17 24 -22
48 -19 30 3 31 2 31 -37 0 -39 -1 -41 -28 -37 -55 8 -85 -48 -51 -97 13 -17
24 -22 48 -19 30 3 31 2 31 -37 0 -39 0 -40 -37 -40 -25 -1 -35 2 -28 9 31 31
-6 86 -58 86 -35 0 -52 -22 -52 -64 0 -31 40 -61 69 -51 19 6 20 3 15 -25 -9
-40 17 -70 61 -70 29 0 31 -2 27 -29 -5 -35 26 -71 61 -71 19 0 23 -5 23 -34
0 -28 -3 -33 -23 -33 -37 -1 -66 -32 -60 -68 5 -28 3 -30 -29 -30 -29 0 -32 3
-27 23 3 13 -2 33 -11 47 -32 48 -106 22 -106 -37 0 -33 33 -62 63 -56 22 4
24 1 23 -30 -1 -26 5 -39 25 -54 32 -24 62 -18 86 18 13 20 14 30 4 51 -10 22
-10 25 4 19 9 -3 24 -6 34 -6 13 0 17 -9 17 -35 0 -31 -3 -35 -26 -35 -31 0
-60 -28 -60 -56 0 -33 29 -64 59 -64 24 0 27 -4 27 -35 0 -31 -3 -35 -26 -35
-15 0 -34 -8 -43 -18 -36 -40 -9 -102 44 -102 22 0 25 -4 25 -35 0 -31 -3 -35
-27 -35 -31 0 -59 -31 -59 -66 0 -27 30 -54 61 -54 22 0 25 -4 25 -35 0 -26
-4 -35 -17 -35 -10 0 -25 -3 -34 -6 -14 -6 -14 -3 -4 19 10 21 9 31 -4 51 -24
36 -54 42 -86 18 -20 -15 -26 -28 -25 -54 1 -31 -1 -34 -23 -30 -52 10 -85
-65 -45 -101 43 -39 112 0 99 55 -5 20 -2 23 27 23 32 0 34 -2 29 -30 -6 -36
23 -68 60 -68 20 1 23 -5 23 -33 0 -29 -4 -34 -23 -34 -30 0 -63 -34 -63 -64
0 -28 46 -69 70 -63 12 3 15 -4 15 -32 0 -34 -2 -36 -32 -37 -28 0 -31 2 -22
18 7 13 6 27 -3 46 -26 53 -118 34 -118 -25 0 -33 36 -66 68 -61 25 4 27 1 27
-37 0 -39 -1 -40 -34 -40 -28 0 -38 -6 -50 -27 -15 -25 -15 -31 0 -55 12 -22
22 -28 50 -28 33 0 34 -1 34 -40 0 -39 -1 -40 -32 -37 -25 3 -35 -1 -48 -22
-10 -15 -15 -37 -13 -51 5 -23 2 -25 -28 -25 -32 0 -33 2 -28 29 11 56 -62 94
-99 53 -20 -22 -22 -65 -4 -80 7 -6 67 -10 140 -11 l128 0 10 27 c7 18 7 32 1
43 -8 13 -5 15 22 15 29 -1 31 -3 31 -38 0 -20 -3 -34 -7 -32 -5 3 -17 2 -29
-1 -17 -6 -20 -14 -17 -63 3 -54 5 -57 28 -57 23 0 25 -4 25 -36 0 -21 -3 -35
-7 -33 -5 3 -17 2 -29 -1 -17 -6 -20 -14 -17 -63 3 -53 5 -57 29 -60 21 -3 25
-8 25 -37 0 -32 -3 -35 -28 -35 -18 0 -28 -5 -28 -15 0 -8 -7 -15 -15 -15 -22
0 -19 -46 5 -70 11 -11 30 -20 43 -20 20 0 23 -5 23 -35 0 -31 -3 -35 -26 -35
-52 0 -76 -53 -44 -98 15 -22 57 -30 80 -14 19 12 33 48 28 68 -4 16 0 19 25
19 26 0 29 -3 24 -23 -3 -13 2 -33 11 -47 20 -31 74 -34 99 -7 18 19 22 59 9
78 -12 18 -52 36 -68 30 -10 -4 -14 3 -14 29 0 32 3 35 28 35 35 0 62 27 62
63 0 36 -35 70 -66 64 -21 -4 -24 -1 -24 29 0 31 3 34 28 34 35 0 62 27 62 63
0 36 -35 70 -66 64 -21 -4 -24 -1 -24 29 0 31 3 34 28 34 37 0 62 28 62 68 0
35 -30 62 -67 62 -19 0 -23 5 -23 30 0 25 4 30 23 30 39 0 67 27 67 65 0 38
-28 65 -67 65 -19 0 -23 5 -23 30 0 25 4 30 23 30 39 0 67 27 67 65 0 38 -28
65 -67 65 -19 0 -23 5 -23 34 0 30 3 33 24 29 52 -10 89 74 48 110 -10 10 -31
17 -45 17 -24 0 -27 4 -27 34 0 30 3 33 24 29 52 -10 89 74 48 110 -10 10 -31
17 -45 17 -24 0 -27 4 -27 35 0 26 4 33 14 29 16 -6 56 12 68 30 26 39 -7 96
-55 96 -24 0 -27 4 -27 36 0 30 3 34 18 29 28 -8 72 31 72 64 0 34 -30 63 -65
64 -22 0 -25 4 -25 33 0 31 3 34 28 34 47 0 80 58 54 96 -12 18 -52 36 -68 30
-10 -4 -14 3 -14 29 0 32 3 35 28 35 35 0 62 27 62 63 0 36 -35 70 -66 64 -21
-4 -24 -1 -24 29 0 31 3 34 28 34 16 0 36 8 45 18 39 43 2 120 -52 109 -25 -5
-27 -4 -23 29 3 27 9 34 26 34 38 0 66 28 66 65 0 38 -28 65 -67 65 -19 0 -23
5 -23 30 0 25 4 30 23 30 39 0 67 27 67 65 0 38 -28 65 -67 65 -19 0 -23 5
-23 34 0 29 3 33 20 29 34 -9 70 23 70 61 0 39 -26 66 -63 66 -24 0 -27 4 -27
34 0 30 3 33 24 29 52 -10 89 74 48 110 -10 10 -31 17 -45 17 -24 0 -27 4 -27
34 0 30 3 33 24 29 52 -10 89 74 48 110 -10 10 -31 17 -45 17 -24 0 -27 4 -27
35 0 26 4 33 14 29 16 -6 56 12 68 30 4 6 8 23 8 37 0 57 -84 82 -116 34 -9
-14 -14 -34 -11 -47 5 -20 2 -23 -24 -23 -20 0 -29 5 -28 15 1 8 1 23 0 32 -3
47 -78 66 -105 26z m160 -231 c0 -28 -3 -32 -27 -32 -24 0 -27 4 -26 33 1 27
5 32 26 32 22 0 26 -5 27 -33z m0 -190 c0 -28 -3 -32 -27 -32 -24 0 -27 4 -26
33 1 27 5 32 26 32 22 0 26 -5 27 -33z m0 -190 c0 -30 -3 -34 -27 -34 -24 0
-27 4 -26 34 1 28 4 33 26 33 23 0 26 -5 27 -33z m-102 -64 c7 3 11 -8 11 -32
0 -33 -2 -36 -28 -36 -22 0 -27 4 -23 19 3 10 1 29 -5 42 -8 23 -7 24 12 14
11 -7 26 -9 33 -7z m102 -128 c0 -30 -3 -33 -26 -33 -22 1 -26 6 -27 33 -1 28
2 32 26 33 24 0 27 -3 27 -33z m-91 -96 c0 -24 -4 -35 -11 -32 -7 2 -22 0 -33
-7 -19 -10 -20 -9 -12 14 6 13 8 32 5 42 -4 15 1 19 23 19 26 0 28 -3 28 -36z
m91 -96 c0 -29 -3 -33 -26 -33 -23 0 -26 4 -26 33 0 30 3 34 26 34 23 0 26 -4
26 -34z m-91 -94 c0 -24 -4 -35 -11 -32 -7 2 -22 0 -33 -7 -19 -10 -20 -9 -11
15 6 17 7 33 1 44 -8 15 -5 17 22 17 30 -1 32 -3 32 -37z m91 -95 c-1 -29 -4
-34 -27 -34 -21 0 -25 5 -26 33 -1 28 2 32 26 33 25 1 27 -2 27 -32z m0 -191
c-1 -28 -5 -33 -27 -33 -21 0 -25 5 -26 33 -1 28 2 32 26 32 24 0 27 -4 27
-32z m-1 -193 c0 -33 -2 -36 -25 -32 -22 3 -26 9 -27 35 -1 28 2 32 26 32 24
0 26 -4 26 -35z m0 -188 c0 -35 -1 -38 -26 -34 -21 3 -26 9 -26 32 0 23 5 30
26 33 14 2 26 5 26 6 0 0 0 -16 0 -37z m0 -189 c0 -34 -2 -38 -26 -38 -24 0
-27 4 -26 32 1 26 5 33 26 36 15 2 26 5 26 6 0 0 0 -16 0 -36z m1 -196 c0 -28
-3 -32 -27 -32 -24 0 -27 4 -26 33 1 27 5 32 26 32 22 0 26 -5 27 -33z m0
-191 c0 -30 -2 -33 -27 -32 -24 1 -27 5 -26 34 1 27 5 32 26 32 23 0 26 -5 27
-34z m0 -189 c0 -30 -3 -34 -27 -34 -24 0 -27 4 -26 34 1 29 4 33 27 33 23 0
26 -4 26 -33z m-102 -64 c7 3 11 -8 11 -32 0 -33 -2 -36 -28 -36 -22 0 -27 4
-23 19 3 10 1 29 -5 42 -8 23 -7 24 12 14 11 -7 26 -9 33 -7z m102 -128 c0
-30 -3 -33 -27 -33 -24 1 -27 5 -26 33 1 27 5 32 27 33 23 0 26 -3 26 -33z m0
-192 c-1 -28 -4 -33 -27 -33 -22 0 -25 5 -26 33 -1 30 2 34 26 34 24 0 27 -4
27 -34z m0 -190 c-1 -29 -4 -33 -27 -33 -24 0 -27 4 -27 33 0 28 3 32 27 32
24 0 27 -4 27 -32z m0 -190 c-1 -28 -5 -33 -27 -33 -21 0 -25 5 -26 33 -1 28
2 32 26 32 24 0 27 -4 27 -32z" />
        <path d="M3277 3552 c-22 -24 -21 -45 1 -65 35 -32 72 -14 72 35 0 17 -7 31
-19 38 -27 14 -35 13 -54 -8z" />
        <path d="M3444 3545 c-15 -23 -15 -27 0 -50 28 -42 86 -28 86 21 0 52 -58 71
-86 29z" />
        <path d="M3622 3558 c-17 -17 -15 -63 2 -77 46 -38 111 25 71 69 -20 22 -55
26 -73 8z" />
        <path d="M3795 3554 c-23 -23 -15 -66 14 -81 29 -14 55 -4 71 28 26 47 -46 92
-85 53z" />
        <path d="M2417 3549 c-21 -12 -22 -42 -3 -58 20 -16 56 3 56 29 0 25 -30 41
-53 29z" />
        <path d="M2588 3549 c-30 -17 -16 -69 18 -69 14 0 44 27 44 40 0 10 -29 40
-38 40 -4 0 -15 -5 -24 -11z" />
        <path d="M2750 3540 c-8 -14 -8 -26 0 -40 18 -33 70 -23 70 14 0 45 -50 63
-70 26z" />
        <path d="M2924 3546 c-3 -8 -4 -25 -2 -38 2 -18 9 -23 32 -23 36 0 56 27 40
53 -14 22 -62 28 -70 8z" />
        <path d="M3102 3548 c-19 -19 -14 -56 9 -68 16 -9 26 -8 45 5 27 17 29 27 14
56 -12 21 -50 25 -68 7z" />
        <path d="M1723 3543 c-15 -5 -17 -39 -4 -47 14 -9 41 4 41 19 0 17 -22 33 -37
28z" />
        <path d="M1893 3543 c-18 -7 -16 -42 3 -50 8 -3 23 1 31 10 13 13 14 19 3 31
-13 17 -17 18 -37 9z" />
        <path d="M2061 3537 c-17 -21 -3 -49 23 -45 15 2 21 10 21 28 0 28 -26 38 -44
17z" />
        <path d="M2230 3535 c-10 -12 -10 -18 0 -30 20 -25 55 -15 55 15 0 30 -35 40
-55 15z" />
        <path d="M1024 3526 c-8 -22 3 -33 18 -18 9 9 9 15 0 24 -9 9 -13 7 -18 -6z" />
        <path d="M1194 3529 c-10 -17 13 -36 27 -22 12 12 4 33 -11 33 -5 0 -12 -5
-16 -11z" />
        <path d="M1365 3530 c-8 -14 3 -30 21 -30 8 0 14 9 14 20 0 21 -24 28 -35 10z" />
        <path d="M1535 3530 c-9 -15 14 -40 31 -33 22 8 18 43 -5 43 -11 0 -23 -5 -26
-10z" />
        <path d="M500 3520 c0 -5 5 -10 10 -10 6 0 10 5 10 10 0 6 -4 10 -10 10 -5 0
-10 -4 -10 -10z" />
        <path d="M670 3520 c0 -5 7 -10 16 -10 8 0 12 5 9 10 -3 6 -10 10 -16 10 -5 0
-9 -4 -9 -10z" />
        <path d="M842 3519 c2 -6 8 -10 13 -10 5 0 11 4 13 10 2 6 -4 11 -13 11 -9 0
-15 -5 -13 -11z" />
        <path d="M4405 3468 c-22 -17 -26 -27 -22 -53 5 -28 3 -32 -14 -28 -31 8 -69
-23 -69 -57 0 -37 23 -60 60 -60 36 0 65 38 56 73 -5 21 -3 23 23 19 22 -3 33
2 50 23 27 36 27 50 -4 80 -30 31 -44 31 -80 3z" />
        <path d="M3542 3464 c-39 -27 -19 -94 27 -94 24 0 51 31 51 58 0 18 -33 52
-50 52 -3 0 -16 -7 -28 -16z" />
        <path d="M3712 3464 c-27 -18 -29 -55 -4 -77 26 -23 58 -21 76 5 21 30 20 44
-4 68 -24 24 -38 25 -68 4z" />
        <path d="M3873 3454 c-15 -24 -15 -29 -2 -53 16 -29 61 -40 85 -20 21 18 18
76 -5 89 -33 17 -60 11 -78 -16z" />
        <path d="M4056 3467 c-21 -16 -24 -60 -6 -82 18 -22 77 -19 90 4 32 61 -30
118 -84 78z" />
        <path d="M4226 3464 c-36 -35 -6 -104 44 -104 23 0 60 42 60 67 0 45 -71 71
-104 37z" />
        <path d="M2846 3457 c-38 -27 2 -95 42 -71 24 16 28 55 6 71 -10 7 -21 13 -24
13 -3 0 -14 -6 -24 -13z" />
        <path d="M3018 3459 c-21 -12 -24 -49 -6 -67 18 -18 56 -14 68 7 14 27 13 37
-6 55 -18 18 -32 20 -56 5z" />
        <path d="M3186 3455 c-19 -19 -20 -29 -6 -56 16 -28 68 -26 79 4 18 46 -38 86
-73 52z" />
        <path d="M3357 3449 c-19 -26 -10 -58 19 -71 44 -20 86 46 52 80 -19 19 -55
14 -71 -9z" />
        <path d="M2152 3451 c-8 -4 -12 -19 -10 -32 2 -18 9 -24 28 -24 28 0 39 27 20
50 -14 17 -20 18 -38 6z" />
        <path d="M2320 3445 c-19 -23 -8 -50 22 -53 19 -2 28 2 33 18 12 39 -29 66
-55 35z" />
        <path d="M2490 3445 c-18 -21 -3 -55 24 -55 33 0 50 23 36 49 -12 24 -42 27
-60 6z" />
        <path d="M2660 3439 c-10 -18 -9 -25 9 -43 27 -27 56 -12 56 30 0 24 -5 30
-27 32 -19 2 -30 -3 -38 -19z" />
        <path d="M1280 3436 c-13 -17 -6 -36 15 -36 19 0 26 27 11 39 -10 8 -17 7 -26
-3z" />
        <path d="M1452 3437 c-15 -17 1 -42 23 -33 18 6 17 37 -1 43 -6 2 -16 -2 -22
-10z" />
        <path d="M1624 3435 c-4 -9 -2 -21 4 -27 15 -15 44 -1 40 19 -4 23 -36 29 -44
8z" />
        <path d="M1793 3434 c-3 -8 1 -22 9 -30 12 -12 17 -12 33 -1 23 17 14 47 -15
47 -11 0 -23 -7 -27 -16z" />
        <path d="M1964 3435 c-7 -18 12 -45 32 -45 16 0 33 30 27 48 -7 17 -52 15 -59
-3z" />
        <path d="M585 3429 c-10 -15 3 -25 16 -12 7 7 7 13 1 17 -6 3 -14 1 -17 -5z" />
        <path d="M757 3434 c-8 -8 1 -24 14 -24 5 0 9 7 9 15 0 15 -12 20 -23 9z" />
        <path d="M930 3425 c0 -8 7 -15 15 -15 8 0 15 7 15 15 0 8 -7 15 -15 15 -8 0
-15 -7 -15 -15z" />
        <path d="M1102 3423 c4 -21 33 -25 33 -3 0 8 -8 16 -18 18 -14 3 -18 -1 -15
-15z" />
        <path d="M410 3419 c0 -5 5 -7 10 -4 6 3 10 8 10 11 0 2 -4 4 -10 4 -5 0 -10
-5 -10 -11z" />
        <path d="M4144 3365 c-27 -27 -26 -59 4 -82 57 -45 123 36 72 87 -27 27 -46
25 -76 -5z" />
        <path d="M3279 3361 c-29 -23 -20 -68 16 -77 34 -9 57 12 53 49 -4 39 -38 53
-69 28z" />
        <path d="M3450 3360 c-24 -24 -24 -29 -4 -58 17 -24 53 -29 72 -10 17 17 15
54 -4 72 -21 21 -40 20 -64 -4z" />
        <path d="M3628 3369 c-22 -12 -24 -62 -4 -78 46 -38 111 25 71 69 -20 22 -41
25 -67 9z" />
        <path d="M3796 3364 c-23 -23 -20 -61 7 -78 30 -20 66 -10 78 22 20 52 -46 96
-85 56z" />
        <path d="M3965 3360 c-41 -46 29 -116 75 -75 22 20 27 64 8 83 -19 19 -63 14
-83 -8z" />
        <path d="M2588 3359 c-33 -19 -15 -69 24 -69 9 0 22 9 28 21 9 16 8 25 -6 40
-20 22 -22 22 -46 8z" />
        <path d="M2756 3354 c-31 -30 -8 -69 36 -62 26 3 37 41 18 64 -16 18 -35 18
-54 -2z" />
        <path d="M2932 3361 c-8 -5 -12 -21 -10 -37 2 -24 8 -29 35 -32 28 -3 33 1 39
23 10 42 -27 70 -64 46z" />
        <path d="M3102 3358 c-21 -21 -14 -57 13 -70 22 -10 29 -9 47 10 19 18 20 25
10 47 -13 27 -49 34 -70 13z" />
        <path d="M1892 3351 c-20 -12 -10 -46 14 -49 25 -4 40 24 23 44 -13 16 -19 17
-37 5z" />
        <path d="M2061 3347 c-17 -21 -3 -49 23 -45 15 2 21 10 21 28 0 28 -26 38 -44
17z" />
        <path d="M2231 3347 c-24 -29 17 -70 46 -46 8 7 13 22 11 33 -4 25 -40 33 -57
13z" />
        <path d="M2404 3345 c-14 -37 26 -69 53 -42 22 22 8 57 -23 57 -14 0 -27 -7
-30 -15z" />
        <path d="M1024 3336 c-8 -22 3 -33 18 -18 9 9 9 15 0 24 -9 9 -13 7 -18 -6z" />
        <path d="M1197 3344 c-14 -14 -7 -35 11 -32 9 2 17 10 17 17 0 16 -18 25 -28
15z" />
        <path d="M1365 3340 c-8 -14 3 -30 21 -30 8 0 14 9 14 20 0 21 -24 28 -35 10z" />
        <path d="M1534 3339 c-8 -14 21 -43 35 -35 6 4 11 16 11 27 0 21 -34 27 -46 8z" />
        <path d="M1712 3328 c2 -15 10 -23 23 -23 30 0 27 39 -3 43 -20 3 -23 0 -20
-20z" />
        <path d="M500 3330 c0 -5 5 -10 10 -10 6 0 10 5 10 10 0 6 -4 10 -10 10 -5 0
-10 -4 -10 -10z" />
        <path d="M670 3330 c0 -5 7 -10 16 -10 8 0 12 5 9 10 -3 6 -10 10 -16 10 -5 0
-9 -4 -9 -10z" />
        <path d="M847 3334 c-8 -8 1 -24 14 -24 5 0 9 7 9 15 0 15 -12 20 -23 9z" />
        <path d="M3712 3274 c-27 -18 -29 -55 -4 -77 26 -23 58 -21 76 5 21 30 20 44
-4 68 -24 24 -38 25 -68 4z" />
        <path d="M3880 3270 c-11 -11 -20 -28 -20 -38 0 -41 69 -69 98 -40 17 17 15
64 -4 82 -21 22 -50 20 -74 -4z" />
        <path d="M4056 3277 c-26 -19 -24 -67 4 -89 27 -22 39 -22 68 -2 42 29 18 104
-34 104 -11 0 -28 -6 -38 -13z" />
        <path d="M4227 3272 c-36 -39 -7 -102 45 -102 25 0 58 36 58 63 0 50 -70 76
-103 39z" />
        <path d="M3016 3264 c-31 -31 -13 -74 31 -74 21 0 43 25 43 49 0 14 -29 41
-45 41 -7 0 -21 -7 -29 -16z" />
        <path d="M3186 3264 c-30 -30 -10 -74 34 -74 40 0 58 32 35 66 -18 28 -46 31
-69 8z" />
        <path d="M3355 3257 c-18 -27 -12 -53 17 -68 27 -15 57 -2 64 28 14 55 -50 87
-81 40z" />
        <path d="M3531 3266 c-38 -46 25 -111 69 -71 22 20 26 55 8 73 -17 17 -63 15
-77 -2z" />
        <path d="M2152 3261 c-8 -4 -12 -19 -10 -32 2 -18 9 -24 28 -24 28 0 39 27 20
50 -14 17 -20 18 -38 6z" />
        <path d="M2320 3255 c-19 -23 -8 -50 22 -53 19 -2 28 2 33 18 12 39 -29 66
-55 35z" />
        <path d="M2490 3255 c-6 -8 -9 -23 -5 -34 9 -29 36 -35 58 -13 16 16 17 23 8
41 -13 24 -43 28 -61 6z" />
        <path d="M2661 3251 c-14 -25 -5 -48 20 -56 27 -9 51 13 47 44 -4 34 -51 43
-67 12z" />
        <path d="M2837 3263 c-11 -11 -8 -48 5 -61 30 -30 75 0 64 43 -5 19 -13 25
-35 25 -15 0 -31 -3 -34 -7z" />
        <path d="M1453 3249 c-16 -16 -5 -39 19 -39 14 0 19 6 16 22 -4 25 -19 33 -35
17z" />
        <path d="M1627 3254 c-4 -4 -7 -16 -7 -26 0 -14 6 -19 23 -16 14 2 22 10 22
23 0 20 -25 32 -38 19z" />
        <path d="M1793 3244 c-3 -8 2 -23 11 -32 14 -15 18 -15 31 -1 9 9 13 23 9 32
-8 21 -43 22 -51 1z" />
        <path d="M1964 3245 c-7 -18 12 -45 32 -45 16 0 33 30 27 48 -7 17 -52 15 -59
-3z" />
        <path d="M585 3239 c-10 -15 3 -25 16 -12 7 7 7 13 1 17 -6 3 -14 1 -17 -5z" />
        <path d="M757 3244 c-8 -8 1 -24 14 -24 5 0 9 7 9 15 0 15 -12 20 -23 9z" />
        <path d="M930 3235 c0 -8 7 -15 15 -15 8 0 15 7 15 15 0 8 -7 15 -15 15 -8 0
-15 -7 -15 -15z" />
        <path d="M1102 3233 c2 -10 10 -18 18 -18 22 0 18 29 -3 33 -14 3 -18 -1 -15
-15z" />
        <path d="M1275 3240 c-8 -13 3 -30 20 -30 14 0 27 24 18 34 -10 9 -31 7 -38
-4z" />
        <path d="M410 3230 c0 -5 5 -10 10 -10 6 0 10 5 10 10 0 6 -4 10 -10 10 -5 0
-10 -4 -10 -10z" />
        <path d="M4145 3175 c-26 -26 -27 -52 -3 -82 15 -19 63 -16 81 5 31 34 16 83
-30 97 -17 4 -30 -1 -48 -20z" />
        <path d="M3450 3170 c-25 -25 -25 -42 -2 -63 35 -32 82 -15 82 28 0 23 -28 55
-48 55 -7 0 -21 -9 -32 -20z" />
        <path d="M3628 3179 c-22 -12 -24 -62 -4 -78 46 -38 111 25 71 69 -20 22 -41
25 -67 9z" />
        <path d="M3796 3174 c-40 -40 7 -109 59 -86 32 15 41 47 21 77 -19 29 -57 33
-80 9z" />
        <path d="M3965 3170 c-41 -46 29 -116 75 -75 22 20 27 64 8 83 -19 19 -63 14
-83 -8z" />
        <path d="M2587 3169 c-32 -18 -14 -69 25 -69 19 0 42 35 33 50 -12 19 -40 28
-58 19z" />
        <path d="M2756 3164 c-31 -30 -8 -69 36 -62 26 3 37 41 18 64 -16 18 -35 18
-54 -2z" />
        <path d="M2926 3159 c-17 -24 -12 -45 14 -59 25 -14 49 -2 56 26 12 48 -41 73
-70 33z" />
        <path d="M3102 3168 c-21 -21 -14 -57 13 -70 22 -10 29 -9 47 10 19 18 20 25
10 47 -13 27 -49 34 -70 13z" />
        <path d="M3271 3166 c-20 -24 -5 -65 26 -72 35 -9 66 26 54 59 -10 27 -62 35
-80 13z" />
        <path d="M1890 3155 c-16 -19 -6 -45 19 -45 23 0 35 28 20 46 -15 18 -24 18
-39 -1z" />
        <path d="M2060 3156 c-18 -22 -5 -48 22 -44 17 2 23 10 23 28 0 29 -26 38 -45
16z" />
        <path d="M2230 3151 c-7 -15 -6 -24 6 -36 9 -9 21 -14 27 -12 18 6 31 33 24
51 -9 22 -44 20 -57 -3z" />
        <path d="M2404 3155 c-14 -37 26 -69 53 -42 22 22 8 57 -23 57 -14 0 -27 -7
-30 -15z" />
        <path d="M1197 3154 c-14 -14 -7 -35 11 -32 9 2 17 10 17 17 0 16 -18 25 -28
15z" />
        <path d="M1367 3153 c-14 -13 -7 -33 11 -33 24 0 32 8 25 26 -5 15 -25 19 -36
7z" />
        <path d="M1537 3146 c-8 -20 20 -43 35 -28 14 14 3 42 -16 42 -7 0 -16 -6 -19
-14z" />
        <path d="M1712 3138 c2 -15 10 -23 23 -23 30 0 27 39 -3 43 -20 3 -23 0 -20
-20z" />
        <path d="M500 3140 c0 -5 5 -10 11 -10 5 0 7 5 4 10 -3 6 -8 10 -11 10 -2 0
-4 -4 -4 -10z" />
        <path d="M672 3141 c2 -7 7 -12 11 -12 12 1 9 15 -3 20 -7 2 -11 -2 -8 -8z" />
        <path d="M847 3144 c-8 -8 1 -24 14 -24 5 0 9 7 9 15 0 15 -12 20 -23 9z" />
        <path d="M1020 3134 c0 -17 22 -14 28 4 2 7 -3 12 -12 12 -9 0 -16 -7 -16 -16z" />
        <path d="M3718 3086 c-28 -14 -35 -57 -13 -80 25 -24 62 -20 81 9 32 49 -15
97 -68 71z" />
        <path d="M3880 3080 c-11 -11 -20 -28 -20 -38 0 -41 69 -69 98 -40 18 18 14
63 -6 81 -25 22 -48 21 -72 -3z" />
        <path d="M4056 3084 c-25 -25 -20 -71 10 -91 24 -15 29 -15 53 -2 16 9 27 25
29 43 6 53 -55 87 -92 50z" />
        <path d="M4227 3082 c-26 -28 -21 -69 9 -88 55 -37 117 25 80 80 -20 31 -65
35 -89 8z" />
        <path d="M3016 3074 c-30 -30 -13 -74 29 -74 46 0 60 48 23 74 -28 20 -33 20
-52 0z" />
        <path d="M3187 3072 c-24 -26 -21 -49 7 -67 45 -30 91 20 59 64 -18 26 -45 27
-66 3z" />
        <path d="M3355 3066 c-13 -19 -14 -29 -6 -45 25 -45 91 -33 91 17 0 54 -56 72
-85 28z" />
        <path d="M3532 3078 c-20 -20 -15 -66 9 -78 47 -26 100 25 72 69 -13 20 -64
26 -81 9z" />
        <path d="M2320 3065 c-20 -25 -8 -50 25 -50 21 0 31 5 33 18 4 21 -14 47 -33
47 -7 0 -18 -7 -25 -15z" />
        <path d="M2492 3068 c-18 -18 -14 -46 7 -58 38 -20 71 13 51 51 -12 21 -40 25
-58 7z" />
        <path d="M2661 3061 c-14 -25 -5 -48 20 -56 27 -9 51 13 47 44 -4 34 -51 43
-67 12z" />
        <path d="M2834 3066 c-15 -40 21 -80 54 -60 37 24 21 74 -25 74 -13 0 -26 -6
-29 -14z" />
        <path d="M1452 3058 c-15 -15 -3 -38 19 -38 12 0 19 7 19 19 0 22 -23 34 -38
19z" />
        <path d="M1627 3063 c-12 -12 -7 -41 7 -46 19 -7 40 18 32 38 -6 15 -28 20
-39 8z" />
        <path d="M1793 3054 c-3 -8 2 -23 11 -32 14 -15 18 -15 31 -1 9 9 13 23 9 32
-8 21 -43 22 -51 1z" />
        <path d="M1966 3054 c-9 -22 17 -49 39 -40 10 3 15 15 13 28 -4 29 -42 37 -52
12z" />
        <path d="M2142 3057 c-16 -19 8 -50 34 -45 28 5 26 52 -2 56 -11 2 -26 -3 -32
-11z" />
        <path d="M756 3052 c-3 -6 -1 -14 5 -17 15 -10 25 3 12 16 -7 7 -13 7 -17 1z" />
        <path d="M932 3046 c1 -10 8 -17 13 -17 15 1 12 24 -3 29 -9 3 -13 -2 -10 -12z" />
        <path d="M1104 3049 c-10 -17 13 -36 27 -22 12 12 4 33 -11 33 -5 0 -12 -5
-16 -11z" />
        <path d="M1275 3050 c-8 -13 3 -30 20 -30 14 0 27 24 18 34 -10 9 -31 7 -38
-4z" />
        <path d="M410 3040 c0 -5 5 -10 10 -10 6 0 10 5 10 10 0 6 -4 10 -10 10 -5 0
-10 -4 -10 -10z" />
        <path d="M580 3040 c0 -5 4 -10 9 -10 6 0 13 5 16 10 3 6 -1 10 -9 10 -9 0
-16 -4 -16 -10z" />
        <path d="M4322 2994 c-24 -16 -29 -53 -12 -85 15 -28 74 -26 94 3 23 32 20 54
-10 77 -32 25 -43 26 -72 5z" />
        <path d="M3463 2990 c-43 -17 -40 -75 5 -87 34 -8 57 8 57 42 0 34 -31 57 -62
45z" />
        <path d="M3628 2989 c-48 -27 3 -115 51 -89 30 15 38 56 16 80 -20 22 -41 25
-67 9z" />
        <path d="M3797 2982 c-23 -25 -21 -55 3 -77 25 -23 67 -13 82 20 24 53 -46
100 -85 57z" />
        <path d="M3967 2982 c-21 -23 -21 -41 -1 -70 18 -26 56 -29 78 -6 19 18 21 65
4 82 -18 18 -63 14 -81 -6z" />
        <path d="M4133 2974 c-15 -24 -15 -29 -2 -53 28 -50 109 -32 109 25 0 55 -76
75 -107 28z" />
        <path d="M2756 2974 c-31 -30 -8 -69 36 -62 26 3 37 41 18 64 -16 18 -35 18
-54 -2z" />
        <path d="M2932 2978 c-18 -18 -14 -56 7 -68 26 -14 50 -3 57 26 11 42 -34 72
-64 42z" />
        <path d="M3102 2978 c-26 -26 -7 -78 28 -78 9 0 25 9 35 20 37 41 -24 97 -63
58z" />
        <path d="M3270 2975 c-20 -25 -1 -69 31 -73 32 -4 51 18 47 55 -2 23 -8 29
-34 31 -19 2 -36 -3 -44 -13z" />
        <path d="M2062 2968 c-7 -7 -12 -18 -12 -25 0 -15 30 -32 48 -26 17 7 15 50
-4 57 -20 8 -18 8 -32 -6z" />
        <path d="M2230 2961 c-7 -15 -6 -23 6 -35 19 -19 26 -20 42 -4 17 17 15 45 -4
52 -25 10 -33 7 -44 -13z" />
        <path d="M2407 2974 c-15 -16 -7 -53 14 -59 30 -10 58 19 43 43 -12 18 -45 28
-57 16z" />
        <path d="M2573 2964 c-8 -21 9 -48 32 -53 26 -5 47 26 34 50 -12 23 -57 25
-66 3z" />
        <path d="M1193 2954 c-7 -19 2 -28 22 -21 19 8 19 23 0 31 -9 3 -18 -1 -22
-10z" />
        <path d="M1363 2954 c-8 -20 17 -36 34 -22 10 8 10 14 2 24 -15 18 -28 18 -36
-2z" />
        <path d="M1537 2956 c-8 -20 20 -43 35 -28 14 14 3 42 -16 42 -7 0 -16 -6 -19
-14z" />
        <path d="M1712 2948 c2 -15 10 -23 23 -23 30 0 27 39 -3 43 -20 3 -23 0 -20
-20z" />
        <path d="M1884 2955 c-8 -19 3 -35 26 -35 19 0 34 25 24 41 -8 14 -44 10 -50
-6z" />
        <path d="M500 2950 c0 -5 5 -10 11 -10 5 0 7 5 4 10 -3 6 -8 10 -11 10 -2 0
-4 -4 -4 -10z" />
        <path d="M676 2951 c-4 -5 -2 -12 3 -15 5 -4 12 -2 15 3 4 5 2 12 -3 15 -5 4
-12 2 -15 -3z" />
        <path d="M847 2954 c-8 -8 1 -24 14 -24 5 0 9 7 9 15 0 15 -12 20 -23 9z" />
        <path d="M1020 2945 c0 -8 7 -15 15 -15 8 0 15 7 15 15 0 8 -7 15 -15 15 -8 0
-15 -7 -15 -15z" />
        <path d="M3880 2890 c-32 -32 -25 -66 18 -89 55 -29 101 57 50 93 -30 21 -44
20 -68 -4z" />
        <path d="M4058 2893 c-26 -31 -28 -51 -7 -77 23 -30 45 -33 77 -10 42 29 18
104 -35 104 -11 0 -27 -8 -35 -17z" />
        <path d="M4227 2892 c-53 -58 28 -137 83 -82 24 24 25 48 4 78 -19 27 -64 29
-87 4z" />
        <path d="M3016 2884 c-30 -30 -13 -74 29 -74 46 0 60 48 23 74 -28 20 -33 20
-52 0z" />
        <path d="M3187 2882 c-24 -26 -21 -49 7 -67 45 -30 91 16 61 61 -19 29 -46 31
-68 6z" />
        <path d="M3354 2875 c-15 -23 -15 -27 0 -50 27 -42 86 -26 86 23 0 55 -56 72
-86 27z" />
        <path d="M3532 2888 c-7 -7 -12 -24 -12 -38 0 -14 5 -31 12 -38 28 -28 88 -2
88 38 0 40 -60 66 -88 38z" />
        <path d="M3702 2888 c-30 -30 -5 -88 38 -88 28 0 60 30 60 57 0 35 -71 58 -98
31z" />
        <path d="M2322 2878 c-30 -30 3 -77 40 -57 24 13 23 46 -1 59 -24 13 -24 13
-39 -2z" />
        <path d="M2492 2878 c-18 -18 -14 -46 7 -58 38 -20 71 13 51 51 -12 21 -40 25
-58 7z" />
        <path d="M2660 2870 c-22 -40 26 -80 58 -48 17 17 15 55 -4 62 -27 11 -43 7
-54 -14z" />
        <path d="M2834 2876 c-3 -8 -4 -25 -2 -38 2 -18 9 -23 32 -23 36 0 56 27 40
53 -14 22 -62 28 -70 8z" />
        <path d="M1627 2873 c-12 -11 -8 -41 7 -46 15 -6 36 11 36 29 0 6 -7 15 -16
18 -19 7 -19 7 -27 -1z" />
        <path d="M1797 2873 c-13 -12 -7 -41 10 -47 9 -4 23 0 31 8 13 12 13 18 2 30
-13 17 -32 21 -43 9z" />
        <path d="M1966 2864 c-9 -22 17 -49 39 -40 10 3 15 15 13 28 -4 29 -42 37 -52
12z" />
        <path d="M2144 2866 c-10 -26 4 -48 28 -44 17 2 23 10 23 28 0 18 -6 26 -23
28 -13 2 -25 -3 -28 -12z" />
        <path d="M756 2862 c-3 -6 -1 -14 5 -17 15 -10 25 3 12 16 -7 7 -13 7 -17 1z" />
        <path d="M935 2860 c-4 -6 -3 -16 3 -22 6 -6 12 -6 17 2 4 6 3 16 -3 22 -6 6
-12 6 -17 -2z" />
        <path d="M1104 2859 c-10 -17 13 -36 27 -22 12 12 4 33 -11 33 -5 0 -12 -5
-16 -11z" />
        <path d="M1275 2860 c-4 -7 -3 -16 3 -22 14 -14 45 -2 40 15 -6 16 -34 21 -43
7z" />
        <path d="M1447 2864 c-11 -11 5 -34 24 -34 12 0 19 7 19 20 0 19 -28 28 -43
14z" />
        <path d="M410 2850 c0 -5 5 -10 10 -10 6 0 10 5 10 10 0 6 -4 10 -10 10 -5 0
-10 -4 -10 -10z" />
        <path d="M580 2850 c0 -5 7 -10 15 -10 8 0 15 5 15 10 0 6 -7 10 -15 10 -8 0
-15 -4 -15 -10z" />
        <path d="M4330 2807 c-20 -10 -25 -20 -25 -52 0 -32 5 -42 27 -54 25 -14 29
-14 55 5 37 28 40 58 9 89 -29 29 -32 29 -66 12z" />
        <path d="M3627 2792 c-21 -23 -22 -56 -1 -76 19 -20 34 -20 62 0 27 19 28 48
2 74 -25 25 -42 25 -63 2z" />
        <path d="M3797 2792 c-10 -10 -17 -28 -17 -39 0 -23 30 -53 53 -53 21 0 57 35
57 55 0 21 -36 55 -58 55 -11 0 -26 -8 -35 -18z" />
        <path d="M3966 2788 c-21 -29 -20 -51 2 -71 39 -35 92 -13 92 38 0 54 -64 76
-94 33z" />
        <path d="M4134 2786 c-13 -22 -14 -29 -2 -53 25 -52 108 -35 108 23 0 54 -76
75 -106 30z" />
        <path d="M2762 2784 c-12 -8 -22 -21 -22 -29 0 -8 10 -21 22 -29 28 -20 58 -4
58 29 0 33 -30 49 -58 29z" />
        <path d="M2932 2788 c-17 -17 -15 -53 3 -68 24 -20 65 3 65 34 0 37 -44 58
-68 34z" />
        <path d="M3102 2788 c-27 -27 -7 -78 29 -78 21 0 49 26 49 45 0 35 -53 58 -78
33z" />
        <path d="M3268 2774 c-9 -18 -9 -30 -1 -42 14 -24 63 -22 79 3 12 18 11 24 -2
43 -21 31 -61 29 -76 -4z" />
        <path d="M3439 2779 c-17 -33 3 -69 39 -69 33 0 52 16 52 45 0 29 -19 45 -52
45 -18 0 -31 -7 -39 -21z" />
        <path d="M2067 2778 c-21 -11 -22 -31 -3 -47 20 -16 46 -3 46 24 0 27 -19 37
-43 23z" />
        <path d="M2231 2771 c-13 -24 9 -57 33 -48 23 9 31 34 16 52 -17 20 -37 19
-49 -4z" />
        <path d="M2404 2776 c-11 -28 1 -51 25 -51 32 0 49 28 32 49 -17 20 -50 21
-57 2z" />
        <path d="M2575 2771 c-9 -28 5 -51 31 -51 29 0 46 28 33 52 -13 24 -56 23 -64
-1z" />
        <path d="M1371 2770 c-14 -8 -8 -40 7 -40 5 0 15 6 21 14 15 17 -8 39 -28 26z" />
        <path d="M1537 2767 c-3 -8 -2 -20 3 -27 11 -18 42 -4 38 17 -4 22 -34 29 -41
10z" />
        <path d="M1714 2765 c-4 -9 -2 -21 4 -27 15 -15 44 -1 40 19 -4 23 -36 29 -44
8z" />
        <path d="M1884 2765 c-8 -20 4 -35 26 -35 23 0 32 13 24 34 -8 20 -43 21 -50
1z" />
        <path d="M676 2761 c-4 -5 -2 -12 3 -15 5 -4 12 -2 15 3 4 5 2 12 -3 15 -5 4
-12 2 -15 -3z" />
        <path d="M847 2764 c-8 -8 1 -24 14 -24 5 0 9 7 9 15 0 15 -12 20 -23 9z" />
        <path d="M1020 2755 c0 -8 7 -15 15 -15 8 0 15 7 15 15 0 8 -7 15 -15 15 -8 0
-15 -7 -15 -15z" />
        <path d="M1190 2755 c0 -10 7 -15 18 -13 21 4 19 22 -2 26 -10 2 -16 -3 -16
-13z" />
        <path d="M3893 2710 c-44 -18 -38 -91 7 -105 56 -18 96 66 48 99 -25 18 -25
18 -55 6z" />
        <path d="M4051 2694 c-12 -15 -21 -30 -21 -34 0 -19 44 -60 64 -60 52 0 76 75
34 104 -32 23 -54 20 -77 -10z" />
        <path d="M4227 2702 c-37 -40 -9 -102 46 -102 28 0 57 32 57 62 0 25 -36 58
-63 58 -13 0 -31 -8 -40 -18z" />
        <path d="M3187 2692 c-10 -10 -17 -25 -17 -34 0 -17 31 -48 48 -48 15 0 52 36
52 50 0 15 -38 50 -53 50 -8 0 -21 -8 -30 -18z" />
        <path d="M3354 2685 c-15 -23 -15 -27 0 -50 28 -43 86 -26 86 25 0 51 -58 68
-86 25z" />
        <path d="M3532 2698 c-7 -7 -12 -24 -12 -38 0 -14 5 -31 12 -38 28 -28 88 -2
88 38 0 40 -60 66 -88 38z" />
        <path d="M3698 2685 c-17 -38 3 -75 40 -75 31 0 62 26 62 52 0 47 -82 65 -102
23z" />
        <path d="M2327 2689 c-21 -12 -22 -42 -3 -58 20 -16 56 3 56 29 0 25 -30 41
-53 29z" />
        <path d="M2498 2689 c-33 -19 -15 -69 24 -69 15 0 38 27 38 44 0 7 -31 36 -38
36 -4 0 -15 -5 -24 -11z" />
        <path d="M2660 2680 c-13 -23 2 -60 25 -60 30 0 45 13 45 40 0 42 -51 56 -70
20z" />
        <path d="M2842 2691 c-8 -4 -12 -21 -10 -37 2 -25 7 -29 32 -29 36 0 56 27 40
53 -13 19 -43 26 -62 13z" />
        <path d="M3012 2688 c-19 -19 -14 -45 10 -62 19 -13 25 -14 43 -2 25 16 31 42
15 61 -15 18 -52 19 -68 3z" />
        <path d="M1633 2683 c-15 -5 -17 -39 -4 -47 16 -10 41 5 41 24 0 19 -17 30
-37 23z" />
        <path d="M1803 2683 c-18 -7 -16 -42 3 -50 8 -3 23 1 31 10 13 13 14 19 3 31
-13 17 -17 18 -37 9z" />
        <path d="M1971 2677 c-17 -21 -3 -49 23 -45 15 2 21 10 21 28 0 28 -26 38 -44
17z" />
        <path d="M2141 2672 c-8 -15 -7 -23 4 -32 23 -19 50 -8 50 20 0 32 -39 41 -54
12z" />
        <path d="M935 2670 c-4 -6 -3 -16 3 -22 6 -6 12 -6 17 2 4 6 3 16 -3 22 -6 6
-12 6 -17 -2z" />
        <path d="M1104 2669 c-10 -17 13 -36 27 -22 12 12 4 33 -11 33 -5 0 -12 -5
-16 -11z" />
        <path d="M1274 2669 c-9 -15 11 -33 30 -26 9 4 13 13 10 22 -7 17 -30 20 -40
4z" />
        <path d="M1447 2674 c-11 -11 5 -34 24 -34 12 0 19 7 19 20 0 19 -28 28 -43
14z" />
        <path d="M410 2660 c0 -5 5 -10 10 -10 6 0 10 5 10 10 0 6 -4 10 -10 10 -5 0
-10 -4 -10 -10z" />
        <path d="M580 2660 c0 -5 7 -10 15 -10 8 0 15 5 15 10 0 6 -7 10 -15 10 -8 0
-15 -4 -15 -10z" />
        <path d="M755 2661 c-6 -11 9 -23 19 -14 9 9 7 23 -3 23 -6 0 -12 -4 -16 -9z" />
        <path d="M3632 2604 c-26 -18 -29 -56 -6 -78 19 -20 34 -20 62 0 27 19 28 48
2 74 -24 24 -29 24 -58 4z" />
        <path d="M3797 2602 c-22 -24 -21 -55 1 -75 26 -23 58 -21 76 5 21 30 20 44
-4 68 -25 25 -52 26 -73 2z" />
        <path d="M3966 2598 c-9 -12 -16 -30 -16 -39 0 -38 70 -65 98 -37 17 17 15 64
-4 82 -22 23 -60 20 -78 -6z" />
        <path d="M4133 2594 c-15 -24 -15 -29 -2 -53 28 -50 109 -34 109 23 0 55 -76
76 -107 30z" />
        <path d="M2936 2597 c-38 -27 2 -95 42 -71 23 15 27 48 7 68 -20 19 -26 20
-49 3z" />
        <path d="M3102 2598 c-17 -17 -15 -53 3 -68 20 -17 62 -5 70 21 13 40 -44 76
-73 47z" />
        <path d="M3268 2586 c-19 -44 8 -74 56 -62 29 7 38 38 19 65 -20 29 -61 27
-75 -3z" />
        <path d="M3446 2594 c-21 -21 -20 -40 4 -64 24 -24 29 -24 58 -4 24 17 29 53
10 72 -17 17 -54 15 -72 -4z" />
        <path d="M2067 2588 c-21 -11 -22 -31 -3 -47 20 -16 46 -3 46 24 0 27 -19 37
-43 23z" />
        <path d="M2231 2581 c-15 -27 9 -56 37 -47 24 8 29 35 10 54 -17 17 -36 15
-47 -7z" />
        <path d="M2412 2591 c-8 -4 -12 -19 -10 -32 4 -29 45 -34 61 -7 19 30 -19 60
-51 39z" />
        <path d="M2580 2585 c-18 -22 -8 -50 21 -53 34 -4 54 20 39 47 -12 24 -42 27
-60 6z" />
        <path d="M2752 2588 c-17 -17 -15 -32 7 -52 16 -14 23 -15 41 -6 31 17 24 64
-10 68 -14 2 -31 -3 -38 -10z" />
        <path d="M1371 2580 c-14 -8 -8 -40 7 -40 5 0 15 6 21 14 15 17 -8 39 -28 26z" />
        <path d="M1542 2577 c-15 -17 1 -42 23 -33 18 6 17 37 -1 43 -6 2 -16 -2 -22
-10z" />
        <path d="M1717 2584 c-4 -4 -7 -16 -7 -26 0 -14 6 -19 23 -16 14 2 22 10 22
23 0 20 -25 32 -38 19z" />
        <path d="M1884 2575 c-8 -20 4 -35 26 -35 23 0 32 13 24 34 -8 20 -43 21 -50
1z" />
        <path d="M675 2569 c-10 -15 3 -25 16 -12 7 7 7 13 1 17 -6 3 -14 1 -17 -5z" />
        <path d="M847 2574 c-8 -8 1 -24 14 -24 5 0 9 7 9 15 0 15 -12 20 -23 9z" />
        <path d="M1020 2565 c0 -8 7 -15 15 -15 8 0 15 7 15 15 0 8 -7 15 -15 15 -8 0
-15 -7 -15 -15z" />
        <path d="M1190 2566 c0 -8 4 -17 8 -20 13 -8 35 11 28 23 -10 16 -36 14 -36
-3z" />
        <path d="M500 2559 c0 -5 5 -7 10 -4 6 3 10 8 10 11 0 2 -4 4 -10 4 -5 0 -10
-5 -10 -11z" />
        <path d="M3883 2506 c-24 -21 -26 -27 -18 -52 14 -39 57 -54 85 -29 57 51 -9
131 -67 81z" />
        <path d="M4067 2519 c-52 -30 -31 -108 29 -109 50 0 73 76 32 104 -26 19 -36
19 -61 5z" />
        <path d="M4227 2512 c-37 -40 -9 -102 46 -102 28 0 57 32 57 62 0 25 -36 58
-63 58 -13 0 -31 -8 -40 -18z" />
        <path d="M3192 2504 c-27 -18 -28 -45 -4 -67 25 -23 48 -21 66 5 20 29 20 34
-4 58 -24 24 -29 24 -58 4z" />
        <path d="M3360 2500 c-24 -24 -24 -29 -4 -58 17 -24 53 -29 72 -10 19 19 15
66 -7 78 -28 14 -38 13 -61 -10z" />
        <path d="M3532 2508 c-7 -7 -12 -24 -12 -38 0 -34 17 -50 52 -50 27 0 48 23
48 54 0 37 -61 61 -88 34z" />
        <path d="M3705 2504 c-22 -23 -15 -66 13 -80 53 -26 100 22 68 71 -19 29 -56
33 -81 9z" />
        <path d="M2498 2499 c-33 -19 -15 -69 24 -69 15 0 38 27 38 44 0 7 -31 36 -38
36 -4 0 -15 -5 -24 -11z" />
        <path d="M2666 2494 c-19 -19 -20 -25 -3 -48 19 -26 61 -18 65 12 7 44 -32 67
-62 36z" />
        <path d="M2841 2496 c-7 -8 -11 -25 -9 -38 2 -18 9 -23 32 -23 36 0 56 27 40
53 -14 22 -48 27 -63 8z" />
        <path d="M3010 2495 c-17 -20 -5 -62 21 -70 24 -8 59 19 59 45 0 37 -55 55
-80 25z" />
        <path d="M1632 2491 c-19 -11 -11 -45 11 -49 9 -2 20 4 23 13 9 21 -16 47 -34
36z" />
        <path d="M1802 2491 c-20 -12 -10 -46 14 -49 25 -4 40 24 23 44 -13 16 -19 17
-37 5z" />
        <path d="M1971 2487 c-17 -21 -3 -49 23 -45 15 2 21 10 21 28 0 28 -26 38 -44
17z" />
        <path d="M2147 2494 c-4 -4 -7 -18 -7 -31 0 -21 4 -24 28 -21 21 2 27 8 27 28
0 18 -6 26 -20 28 -12 2 -24 0 -28 -4z" />
        <path d="M2313 2484 c-8 -22 10 -49 32 -49 10 0 22 7 28 16 15 24 1 49 -28 49
-15 0 -28 -7 -32 -16z" />
        <path d="M934 2476 c-8 -22 3 -33 18 -18 9 9 9 15 0 24 -9 9 -13 7 -18 -6z" />
        <path d="M1107 2484 c-14 -14 -7 -35 11 -32 9 2 17 10 17 17 0 16 -18 25 -28
15z" />
        <path d="M1274 2479 c-9 -15 11 -33 30 -26 9 4 13 13 10 22 -7 17 -30 20 -40
4z" />
        <path d="M1447 2476 c-7 -17 18 -40 33 -31 5 3 10 15 10 26 0 23 -35 27 -43 5z" />
        <path d="M410 2470 c0 -5 5 -10 10 -10 6 0 10 5 10 10 0 6 -4 10 -10 10 -5 0
-10 -4 -10 -10z" />
        <path d="M580 2470 c0 -5 7 -10 16 -10 8 0 12 5 9 10 -3 6 -10 10 -16 10 -5 0
-9 -4 -9 -10z" />
        <path d="M757 2474 c-8 -8 1 -24 14 -24 5 0 9 7 9 15 0 15 -12 20 -23 9z" />
        <path d="M3631 2413 c-33 -22 -26 -74 12 -87 23 -8 31 -6 49 12 18 18 20 26
13 48 -13 35 -46 47 -74 27z" />
        <path d="M3802 2414 c-41 -29 -19 -94 33 -94 24 0 55 33 55 57 0 17 -36 53
-53 53 -7 0 -23 -7 -35 -16z" />
        <path d="M3970 2410 c-11 -11 -20 -28 -20 -38 0 -41 69 -69 98 -40 17 17 15
64 -4 82 -21 22 -50 20 -74 -4z" />
        <path d="M4148 2418 c-26 -21 -30 -53 -10 -78 22 -28 70 -30 89 -4 40 54 -26
123 -79 82z" />
        <path d="M4316 2415 c-25 -25 -20 -72 9 -91 14 -9 33 -14 44 -11 15 4 18 -1
17 -30 -2 -72 86 -93 116 -28 10 22 8 30 -9 53 -16 21 -29 27 -56 26 -32 -1
-34 1 -24 18 30 48 -56 104 -97 63z" />
        <path d="M2936 2407 c-38 -27 2 -95 42 -71 23 15 27 48 7 68 -20 19 -26 20
-49 3z" />
        <path d="M3108 2409 c-21 -12 -24 -49 -6 -67 39 -39 100 17 63 58 -20 22 -32
24 -57 9z" />
        <path d="M3276 2404 c-34 -34 -9 -78 41 -72 22 2 29 9 31 31 6 50 -38 75 -72
41z" />
        <path d="M3446 2404 c-21 -21 -20 -40 4 -64 25 -25 42 -25 63 -2 46 51 -19
115 -67 66z" />
        <path d="M2236 2395 c-20 -21 -5 -55 25 -55 24 0 36 27 22 48 -14 23 -29 25
-47 7z" />
        <path d="M2412 2401 c-8 -4 -12 -19 -10 -32 4 -33 53 -40 63 -9 11 36 -22 61
-53 41z" />
        <path d="M2582 2398 c-18 -18 -14 -46 8 -58 28 -15 65 22 50 50 -12 22 -40 26
-58 8z" />
        <path d="M2751 2396 c-28 -33 22 -83 55 -55 8 7 14 24 12 38 -2 20 -9 27 -29
29 -14 2 -31 -4 -38 -12z" />
        <path d="M1370 2385 c-14 -16 -5 -35 16 -35 15 0 20 35 5 44 -5 3 -14 -1 -21
-9z" />
        <path d="M1542 2387 c-15 -17 1 -42 23 -33 18 6 17 37 -1 43 -6 2 -16 -2 -22
-10z" />
        <path d="M1717 2394 c-4 -4 -7 -16 -7 -26 0 -14 6 -19 23 -16 14 2 22 10 22
23 0 20 -25 32 -38 19z" />
        <path d="M1883 2384 c-3 -8 1 -22 9 -30 19 -19 52 3 42 29 -8 21 -43 22 -51 1z" />
        <path d="M2054 2385 c-4 -9 0 -23 9 -32 21 -21 49 -9 45 19 -4 28 -45 38 -54
13z" />
        <path d="M675 2379 c-10 -15 3 -25 16 -12 7 7 7 13 1 17 -6 3 -14 1 -17 -5z" />
        <path d="M847 2384 c-8 -8 1 -24 14 -24 5 0 9 7 9 15 0 15 -12 20 -23 9z" />
        <path d="M1020 2376 c0 -9 7 -16 16 -16 17 0 14 22 -4 28 -7 2 -12 -3 -12 -12z" />
        <path d="M1192 2373 c4 -21 33 -25 33 -3 0 8 -8 16 -18 18 -14 3 -18 -1 -15
-15z" />
        <path d="M500 2369 c0 -5 5 -7 10 -4 6 3 10 8 10 11 0 2 -4 4 -10 4 -5 0 -10
-5 -10 -11z" />
        <path d="M4060 2322 c-28 -22 -30 -70 -4 -89 41 -30 94 -2 94 49 0 45 -54 69
-90 40z" />
        <path d="M4232 2324 c-27 -19 -29 -64 -4 -87 58 -53 137 28 82 83 -24 24 -48
25 -78 4z" />
        <path d="M3360 2310 c-24 -24 -24 -29 -4 -58 17 -24 53 -29 72 -10 17 17 15
54 -4 72 -21 21 -40 20 -64 -4z" />
        <path d="M3538 2319 c-21 -12 -24 -59 -6 -77 7 -7 24 -12 38 -12 49 0 68 51
32 83 -21 19 -39 21 -64 6z" />
        <path d="M3706 2314 c-40 -40 7 -109 59 -86 32 15 41 47 21 77 -19 29 -57 33
-80 9z" />
        <path d="M3877 2312 c-22 -25 -21 -48 3 -72 24 -24 53 -26 74 -4 19 18 21 65
4 82 -18 18 -63 14 -81 -6z" />
        <path d="M2498 2309 c-33 -19 -15 -69 24 -69 15 0 38 27 38 44 0 7 -31 36 -38
36 -4 0 -15 -5 -24 -11z" />
        <path d="M2666 2304 c-19 -19 -20 -25 -3 -48 19 -26 61 -18 65 12 7 44 -32 67
-62 36z" />
        <path d="M2842 2308 c-17 -17 -15 -55 4 -66 25 -14 53 -3 60 24 11 42 -34 72
-64 42z" />
        <path d="M3012 2308 c-21 -21 -14 -57 13 -70 22 -10 29 -9 47 10 19 18 20 25
10 47 -13 27 -49 34 -70 13z" />
        <path d="M3182 2308 c-27 -27 -1 -78 38 -78 29 0 54 43 40 69 -12 24 -58 29
-78 9z" />
        <path d="M1800 2295 c-16 -19 -6 -45 19 -45 23 0 35 28 20 46 -15 18 -24 18
-39 -1z" />
        <path d="M1971 2296 c-16 -20 -3 -46 24 -46 27 0 36 17 23 43 -10 20 -31 22
-47 3z" />
        <path d="M2147 2304 c-13 -13 -7 -52 9 -58 22 -9 46 13 42 38 -3 21 -37 34
-51 20z" />
        <path d="M2313 2294 c-8 -22 10 -49 32 -49 10 0 22 7 28 16 15 24 1 49 -28 49
-15 0 -28 -7 -32 -16z" />
        <path d="M936 2293 c-12 -12 -6 -33 9 -33 8 0 15 6 15 14 0 17 -14 28 -24 19z" />
        <path d="M1107 2294 c-14 -14 -7 -35 11 -32 9 2 17 10 17 17 0 16 -18 25 -28
15z" />
        <path d="M1275 2290 c-4 -6 -1 -17 5 -26 15 -18 42 0 33 22 -6 16 -29 19 -38
4z" />
        <path d="M1447 2286 c-7 -17 18 -40 33 -31 5 3 10 15 10 26 0 23 -35 27 -43 5z" />
        <path d="M1622 2278 c4 -30 43 -33 43 -3 0 13 -8 21 -23 23 -20 3 -23 0 -20
-20z" />
        <path d="M410 2280 c0 -5 5 -10 10 -10 6 0 10 5 10 10 0 6 -4 10 -10 10 -5 0
-10 -4 -10 -10z" />
        <path d="M582 2281 c4 -13 18 -16 19 -4 0 4 -5 9 -11 12 -7 2 -11 -2 -8 -8z" />
        <path d="M757 2284 c-8 -8 1 -24 14 -24 5 0 9 7 9 15 0 15 -12 20 -23 9z" />
        <path d="M3802 2225 c-26 -19 -29 -57 -6 -79 40 -41 105 4 85 58 -6 14 -15 26
-20 26 -5 0 -15 2 -23 5 -7 3 -23 -2 -36 -10z" />
        <path d="M3970 2220 c-11 -11 -20 -28 -20 -38 0 -41 69 -69 98 -40 18 18 14
63 -6 81 -25 22 -48 21 -72 -3z" />
        <path d="M4148 2228 c-30 -24 -31 -56 -4 -83 30 -30 49 -32 76 -5 51 51 -15
132 -72 88z" />
        <path d="M2936 2217 c-38 -28 2 -96 42 -71 23 15 22 54 -4 70 -17 12 -23 12
-38 1z" />
        <path d="M3108 2219 c-21 -12 -24 -49 -6 -67 39 -39 100 17 63 58 -20 22 -32
24 -57 9z" />
        <path d="M3276 2214 c-22 -22 -20 -50 5 -68 43 -30 93 20 63 63 -18 25 -46 27
-68 5z" />
        <path d="M3446 2211 c-32 -35 8 -91 54 -76 24 7 37 51 23 74 -15 24 -56 25
-77 2z" />
        <path d="M3621 2216 c-21 -26 -10 -69 22 -80 23 -8 31 -6 49 12 18 18 20 26
12 49 -7 21 -17 29 -40 31 -18 2 -36 -3 -43 -12z" />
        <path d="M2236 2204 c-22 -21 -3 -56 27 -52 30 4 35 43 8 57 -15 8 -23 7 -35
-5z" />
        <path d="M2410 2205 c-19 -23 -8 -50 22 -53 19 -2 28 2 33 18 12 39 -29 66
-55 35z" />
        <path d="M2582 2208 c-19 -19 -14 -46 9 -59 18 -9 25 -7 41 9 16 16 18 23 9
41 -13 23 -40 28 -59 9z" />
        <path d="M2751 2206 c-28 -33 22 -83 55 -55 8 7 14 24 12 38 -2 20 -9 27 -29
29 -14 2 -31 -4 -38 -12z" />
        <path d="M1541 2196 c-16 -19 -6 -36 20 -36 15 0 20 6 17 22 -4 27 -21 33 -37
14z" />
        <path d="M1717 2204 c-4 -4 -7 -16 -7 -26 0 -14 6 -19 23 -16 14 2 22 10 22
23 0 20 -25 32 -38 19z" />
        <path d="M1887 2203 c-13 -12 -7 -41 10 -47 9 -4 23 0 31 8 13 12 13 18 2 30
-13 17 -32 21 -43 9z" />
        <path d="M2054 2195 c-4 -9 0 -23 9 -32 21 -21 49 -9 45 19 -4 28 -45 38 -54
13z" />
        <path d="M847 2193 c-12 -11 -8 -23 8 -23 8 0 15 7 15 15 0 16 -12 20 -23 8z" />
        <path d="M1022 2186 c1 -10 8 -17 13 -17 15 1 12 24 -3 29 -9 3 -13 -2 -10
-12z" />
        <path d="M1192 2183 c2 -10 10 -18 18 -18 22 0 18 29 -3 33 -14 3 -18 -1 -15
-15z" />
        <path d="M1365 2190 c-8 -14 3 -30 21 -30 8 0 14 9 14 20 0 21 -24 28 -35 10z" />
        <path d="M500 2180 c0 -5 5 -10 10 -10 6 0 10 5 10 10 0 6 -4 10 -10 10 -5 0
-10 -4 -10 -10z" />
        <path d="M670 2180 c0 -5 4 -10 9 -10 6 0 13 5 16 10 3 6 -1 10 -9 10 -9 0
-16 -4 -16 -10z" />
        <path d="M4070 2137 c-52 -27 -41 -99 16 -105 37 -4 64 19 64 52 0 45 -41 72
-80 53z" />
        <path d="M4232 2134 c-45 -31 -19 -104 37 -104 55 0 79 57 41 98 -24 26 -47
28 -78 6z" />
        <path d="M3360 2120 c-24 -24 -24 -29 -4 -58 17 -24 53 -29 72 -10 19 19 14
55 -10 72 -29 20 -34 20 -58 -4z" />
        <path d="M3536 2124 c-24 -24 -20 -61 9 -80 23 -15 27 -15 50 0 30 20 33 56 7
79 -23 21 -46 22 -66 1z" />
        <path d="M3707 2122 c-24 -27 -21 -59 8 -78 51 -33 104 21 71 71 -20 30 -56
33 -79 7z" />
        <path d="M3875 2120 c-39 -43 15 -107 70 -82 19 9 25 19 25 45 0 18 -5 38 -12
45 -18 18 -63 14 -83 -8z" />
        <path d="M2664 2109 c-24 -27 -8 -54 32 -54 23 0 30 5 32 23 4 25 -13 52 -33
52 -6 0 -20 -9 -31 -21z" />
        <path d="M2842 2118 c-34 -34 6 -90 48 -68 35 19 20 80 -20 80 -9 0 -21 -5
-28 -12z" />
        <path d="M3012 2118 c-19 -19 -14 -56 8 -68 43 -23 83 17 60 60 -12 22 -49 27
-68 8z" />
        <path d="M3180 2110 c-27 -50 36 -95 71 -51 26 31 11 65 -29 69 -23 2 -34 -2
-42 -18z" />
        <path d="M1800 2105 c-17 -20 -5 -45 20 -45 11 0 23 7 26 15 6 15 -11 45 -26
45 -4 0 -13 -7 -20 -15z" />
        <path d="M1972 2108 c-18 -18 -15 -36 7 -48 15 -7 23 -6 35 6 12 12 13 20 6
35 -12 22 -30 25 -48 7z" />
        <path d="M2147 2114 c-13 -13 -7 -52 9 -58 22 -9 46 13 42 38 -3 21 -37 34
-51 20z" />
        <path d="M2314 2105 c-14 -37 26 -69 53 -42 22 22 8 57 -23 57 -14 0 -27 -7
-30 -15z" />
        <path d="M2485 2100 c-14 -44 44 -69 65 -29 9 15 8 24 -1 35 -18 21 -57 18
-64 -6z" />
        <path d="M1103 2094 c-7 -19 2 -28 22 -21 19 8 19 23 0 31 -9 3 -18 -1 -22
-10z" />
        <path d="M1275 2100 c-4 -6 -1 -17 5 -26 15 -18 42 0 33 22 -6 16 -29 19 -38
4z" />
        <path d="M1447 2096 c-8 -20 20 -43 35 -28 14 14 3 42 -16 42 -7 0 -16 -6 -19
-14z" />
        <path d="M1624 2095 c-4 -9 -2 -21 4 -27 15 -15 44 -1 40 19 -4 23 -36 29 -44
8z" />
        <path d="M410 2090 c0 -5 5 -10 11 -10 5 0 7 5 4 10 -3 6 -8 10 -11 10 -2 0
-4 -4 -4 -10z" />
        <path d="M582 2091 c2 -7 7 -12 11 -12 12 1 9 15 -3 20 -7 2 -11 -2 -8 -8z" />
        <path d="M757 2094 c-8 -8 1 -24 14 -24 5 0 9 7 9 15 0 15 -12 20 -23 9z" />
        <path d="M930 2085 c0 -8 7 -15 15 -15 8 0 15 7 15 15 0 8 -7 15 -15 15 -8 0
-15 -7 -15 -15z" />
        <path d="M3809 2036 c-47 -23 -31 -96 21 -96 56 0 76 75 26 98 -17 7 -30 7
-47 -2z" />
        <path d="M3970 2030 c-31 -31 -25 -66 16 -88 54 -28 103 57 52 92 -30 21 -44
20 -68 -4z" />
        <path d="M4152 2043 c-24 -10 -34 -53 -18 -79 21 -31 52 -39 81 -20 61 40 6
127 -63 99z" />
        <path d="M4317 2032 c-37 -40 -5 -110 45 -100 21 4 23 1 23 -37 0 -38 -2 -41
-23 -37 -30 6 -62 -24 -62 -58 0 -34 32 -64 62 -58 21 4 23 1 23 -37 0 -38 -2
-41 -23 -37 -51 10 -83 -66 -44 -101 44 -40 112 0 98 57 -5 20 -3 23 19 19 27
-6 75 34 75 62 0 26 -48 68 -73 63 -20 -4 -22 0 -22 32 0 32 2 36 22 32 24 -4
73 36 73 61 0 8 -10 27 -21 42 -17 21 -28 26 -50 23 -26 -4 -28 -2 -23 19 15
57 -60 98 -99 55z" />
        <path d="M3108 2029 c-21 -12 -24 -49 -6 -67 21 -21 57 -14 70 14 11 23 10 29
-11 45 -27 22 -30 22 -53 8z" />
        <path d="M3276 2024 c-23 -23 -20 -51 8 -69 33 -22 66 -5 66 33 0 49 -42 69
-74 36z" />
        <path d="M3444 2015 c-15 -23 -15 -27 0 -50 28 -42 86 -23 86 29 0 49 -58 63
-86 21z" />
        <path d="M3622 2028 c-7 -7 -12 -24 -12 -38 0 -32 17 -50 45 -50 25 0 55 29
55 53 0 38 -61 62 -88 35z" />
        <path d="M2410 2015 c-19 -23 -8 -50 22 -53 34 -4 50 34 22 55 -23 17 -29 16
-44 -2z" />
        <path d="M2582 2018 c-18 -18 -14 -46 7 -58 11 -5 22 -10 25 -10 8 0 36 31 36
40 0 13 -30 40 -44 40 -6 0 -17 -5 -24 -12z" />
        <path d="M2750 2015 c-10 -12 -10 -21 -1 -41 13 -29 47 -30 65 -1 23 37 -36
76 -64 42z" />
        <path d="M2924 2016 c-3 -8 -4 -25 -2 -38 2 -18 9 -23 32 -23 36 0 56 27 40
53 -14 22 -62 28 -70 8z" />
        <path d="M1540 2005 c-15 -18 -5 -35 21 -35 12 0 19 7 19 19 0 24 -25 34 -40
16z" />
        <path d="M1717 2013 c-12 -11 -8 -41 7 -46 15 -6 36 11 36 29 0 6 -7 15 -16
18 -19 7 -19 7 -27 -1z" />
        <path d="M1887 2013 c-13 -12 -7 -41 10 -47 9 -4 23 0 31 8 13 12 13 18 2 30
-13 17 -32 21 -43 9z" />
        <path d="M2056 2004 c-9 -22 17 -49 39 -40 10 3 15 15 13 28 -4 29 -42 37 -52
12z" />
        <path d="M2227 2007 c-8 -22 16 -50 39 -45 13 2 19 12 19 28 0 20 -6 26 -26
28 -16 2 -29 -3 -32 -11z" />
        <path d="M846 2003 c-11 -11 -6 -23 9 -23 8 0 15 4 15 9 0 13 -16 22 -24 14z" />
        <path d="M1022 1996 c1 -10 8 -17 13 -17 15 1 12 24 -3 29 -9 3 -13 -2 -10
-12z" />
        <path d="M1192 1993 c2 -10 10 -18 18 -18 22 0 18 29 -3 33 -14 3 -18 -1 -15
-15z" />
        <path d="M1365 2000 c-8 -14 3 -30 21 -30 8 0 14 9 14 20 0 21 -24 28 -35 10z" />
        <path d="M500 1990 c0 -5 5 -10 10 -10 6 0 10 5 10 10 0 6 -4 10 -10 10 -5 0
-10 -4 -10 -10z" />
        <path d="M670 1990 c0 -5 5 -10 10 -10 6 0 10 5 10 10 0 6 -4 10 -10 10 -5 0
-10 -4 -10 -10z" />
        <path d="M4230 1940 c-55 -55 13 -137 73 -89 35 26 35 61 1 88 -33 26 -49 26
-74 1z" />
        <path d="M3376 1941 c-41 -16 -40 -77 2 -88 34 -8 57 8 57 42 0 33 -31 56 -59
46z" />
        <path d="M3537 1932 c-24 -27 -21 -59 8 -78 23 -15 27 -15 50 0 32 21 33 59 3
80 -29 21 -41 20 -61 -2z" />
        <path d="M3707 1932 c-23 -25 -21 -55 3 -77 25 -23 67 -13 82 20 24 53 -46
100 -85 57z" />
        <path d="M3873 1924 c-15 -24 -15 -29 -2 -53 28 -50 102 -33 102 24 0 55 -69
75 -100 29z" />
        <path d="M4050 1935 c-7 -8 -12 -26 -12 -40 0 -34 19 -55 53 -55 49 0 73 44
49 91 -13 23 -72 26 -90 4z" />
        <path d="M2672 1924 c-12 -8 -22 -21 -22 -29 0 -8 10 -21 22 -29 28 -20 58 -4
58 29 0 33 -30 49 -58 29z" />
        <path d="M2842 1928 c-34 -34 6 -90 48 -68 26 14 26 56 1 70 -25 13 -34 13
-49 -2z" />
        <path d="M3012 1928 c-27 -27 -7 -78 29 -78 21 0 49 26 49 45 0 35 -53 58 -78
33z" />
        <path d="M3179 1919 c-16 -31 3 -69 35 -69 44 0 66 59 32 82 -21 15 -55 8 -67
-13z" />
        <path d="M1972 1918 c-18 -18 -15 -36 7 -48 15 -7 23 -6 35 6 20 19 20 19 0
38 -19 19 -26 20 -42 4z" />
        <path d="M2141 1911 c-15 -27 9 -56 37 -47 39 13 24 66 -18 66 -5 0 -14 -8
-19 -19z" />
        <path d="M2317 1924 c-15 -16 -7 -53 14 -59 30 -10 58 19 43 43 -12 18 -45 28
-57 16z" />
        <path d="M2489 1914 c-17 -21 0 -49 31 -49 31 0 48 28 31 49 -8 9 -21 16 -31
16 -10 0 -23 -7 -31 -16z" />
        <path d="M1106 1913 c-13 -14 -5 -33 14 -33 11 0 20 6 20 14 0 15 -24 28 -34
19z" />
        <path d="M1275 1910 c-4 -6 -1 -17 5 -26 10 -11 16 -12 26 -3 11 9 11 15 3 25
-14 17 -25 18 -34 4z" />
        <path d="M1447 1906 c-8 -20 20 -43 35 -28 14 14 3 42 -16 42 -7 0 -16 -6 -19
-14z" />
        <path d="M1624 1905 c-4 -9 -2 -21 4 -27 15 -15 44 -1 40 19 -4 23 -36 29 -44
8z" />
        <path d="M1794 1905 c-4 -9 -2 -21 4 -27 16 -16 47 -5 47 17 0 26 -42 34 -51
10z" />
        <path d="M586 1901 c-4 -5 -2 -12 3 -15 5 -4 12 -2 15 3 4 5 2 12 -3 15 -5 4
-12 2 -15 -3z" />
        <path d="M757 1904 c-8 -8 1 -24 14 -24 5 0 9 7 9 15 0 15 -12 20 -23 9z" />
        <path d="M930 1895 c0 -8 7 -15 15 -15 8 0 15 7 15 15 0 8 -7 15 -15 15 -8 0
-15 -7 -15 -15z" />
        <path d="M3983 1850 c-43 -18 -41 -84 4 -101 59 -22 102 59 51 95 -25 18 -25
18 -55 6z" />
        <path d="M4141 1834 c-12 -15 -21 -30 -21 -34 0 -16 43 -60 59 -60 31 0 61 30
61 60 0 30 -30 60 -61 60 -10 0 -27 -12 -38 -26z" />
        <path d="M3112 1834 c-12 -8 -22 -24 -22 -34 0 -10 10 -26 22 -34 19 -13 25
-14 43 -2 11 7 20 24 20 36 0 12 -9 29 -20 36 -18 12 -24 11 -43 -2z" />
        <path d="M3277 1832 c-22 -25 -21 -45 3 -67 17 -15 24 -16 45 -7 44 20 27 92
-23 92 -5 0 -16 -8 -25 -18z" />
        <path d="M3444 1825 c-15 -23 -15 -27 0 -50 28 -43 86 -26 86 25 0 51 -58 68
-86 25z" />
        <path d="M3622 1838 c-7 -7 -12 -24 -12 -38 0 -14 5 -31 12 -38 28 -28 88 -2
88 38 0 40 -60 66 -88 38z" />
        <path d="M3792 1838 c-7 -7 -12 -24 -12 -38 0 -34 17 -50 52 -50 18 0 33 8 44
25 15 23 15 27 0 50 -18 27 -63 34 -84 13z" />
        <path d="M2417 1829 c-39 -22 -4 -79 35 -58 10 5 18 18 18 29 0 25 -30 41 -53
29z" />
        <path d="M2582 1828 c-23 -23 -7 -68 24 -68 14 0 44 27 44 40 0 13 -30 40 -44
40 -6 0 -17 -5 -24 -12z" />
        <path d="M2750 1821 c-25 -47 36 -83 64 -38 8 12 8 22 0 35 -16 25 -51 27 -64
3z" />
        <path d="M2924 1826 c-3 -8 -4 -25 -2 -38 2 -18 9 -23 32 -23 36 0 56 27 40
53 -14 22 -62 28 -70 8z" />
        <path d="M1717 1823 c-10 -9 -8 -41 2 -47 16 -10 41 5 41 24 0 10 -7 21 -16
24 -19 7 -19 7 -27 -1z" />
        <path d="M1884 1815 c-8 -21 2 -45 19 -45 8 0 20 7 27 15 10 12 10 18 0 30 -7
8 -19 15 -27 15 -7 0 -16 -7 -19 -15z" />
        <path d="M2057 1816 c-10 -26 4 -47 27 -44 15 2 21 10 21 28 0 29 -38 41 -48
16z" />
        <path d="M2230 1815 c-10 -12 -10 -18 0 -30 20 -25 55 -15 55 15 0 30 -35 40
-55 15z" />
        <path d="M845 1810 c-4 -6 -3 -16 3 -22 6 -6 12 -6 17 2 4 6 3 16 -3 22 -6 6
-12 6 -17 -2z" />
        <path d="M1020 1800 c0 -13 5 -20 13 -17 6 2 12 10 12 17 0 7 -6 15 -12 18 -8
2 -13 -5 -13 -18z" />
        <path d="M1194 1809 c-10 -17 13 -36 27 -22 12 12 4 33 -11 33 -5 0 -12 -5
-16 -11z" />
        <path d="M1365 1810 c-8 -14 3 -30 21 -30 8 0 14 9 14 20 0 21 -24 28 -35 10z" />
        <path d="M1535 1810 c-9 -15 4 -30 26 -30 12 0 19 7 19 20 0 21 -33 29 -45 10z" />
        <path d="M500 1800 c0 -5 5 -10 10 -10 6 0 10 5 10 10 0 6 -4 10 -10 10 -5 0
-10 -4 -10 -10z" />
        <path d="M670 1800 c0 -5 5 -10 10 -10 6 0 10 5 10 10 0 6 -4 10 -10 10 -5 0
-10 -4 -10 -10z" />
        <path d="M4243 1760 c-45 -18 -39 -100 8 -115 28 -9 73 24 77 57 2 18 -5 32
-24 47 -30 23 -30 23 -61 11z" />
        <path d="M3542 1744 c-28 -19 -28 -55 -1 -80 19 -17 23 -17 47 -3 36 20 41 61
10 83 -28 20 -28 20 -56 0z" />
        <path d="M3707 1742 c-22 -24 -21 -55 1 -75 26 -23 58 -21 76 5 21 30 20 44
-4 68 -25 25 -52 26 -73 2z" />
        <path d="M3873 1734 c-15 -24 -15 -29 -2 -53 28 -50 102 -33 102 24 0 55 -69
75 -100 29z" />
        <path d="M4050 1745 c-7 -8 -12 -26 -12 -40 0 -36 20 -55 58 -55 35 0 54 20
54 59 0 44 -72 70 -100 36z" />
        <path d="M2672 1734 c-12 -8 -22 -21 -22 -29 0 -8 10 -21 22 -29 28 -20 58 -4
58 29 0 33 -30 49 -58 29z" />
        <path d="M2842 1738 c-17 -17 -15 -53 3 -68 24 -20 65 3 65 34 0 37 -44 58
-68 34z" />
        <path d="M3012 1738 c-27 -27 -7 -78 29 -78 21 0 49 26 49 45 0 35 -53 58 -78
33z" />
        <path d="M3179 1729 c-16 -30 3 -69 33 -69 45 0 66 35 42 69 -20 27 -60 27
-75 0z" />
        <path d="M3356 1734 c-19 -18 -18 -16 -7 -47 12 -30 43 -39 70 -20 23 16 28
52 9 71 -17 17 -54 15 -72 -4z" />
        <path d="M1973 1725 c-14 -11 -16 -18 -7 -31 15 -25 29 -27 47 -9 30 30 -5 65
-40 40z" />
        <path d="M2141 1721 c-15 -27 9 -56 37 -47 39 13 24 66 -18 66 -5 0 -14 -8
-19 -19z" />
        <path d="M2314 1726 c-11 -28 1 -51 25 -51 32 0 49 28 32 49 -17 20 -50 21
-57 2z" />
        <path d="M2489 1724 c-17 -21 0 -49 31 -49 31 0 48 28 31 49 -8 9 -21 16 -31
16 -10 0 -23 -7 -31 -16z" />
        <path d="M1280 1715 c-20 -24 4 -45 26 -24 13 14 13 17 1 27 -11 10 -17 9 -27
-3z" />
        <path d="M1452 1717 c-15 -17 1 -42 23 -33 18 6 17 37 -1 43 -6 2 -16 -2 -22
-10z" />
        <path d="M1624 1715 c-4 -9 -2 -21 4 -27 15 -15 44 -1 40 19 -4 23 -36 29 -44
8z" />
        <path d="M1794 1715 c-4 -9 -2 -21 4 -27 16 -16 47 -5 47 17 0 26 -42 34 -51
10z" />
        <path d="M586 1711 c-4 -5 -2 -12 3 -15 5 -4 12 -2 15 3 4 5 2 12 -3 15 -5 4
-12 2 -15 -3z" />
        <path d="M757 1714 c-8 -8 1 -24 14 -24 5 0 9 7 9 15 0 15 -12 20 -23 9z" />
        <path d="M930 1705 c0 -8 7 -15 15 -15 8 0 15 7 15 15 0 8 -7 15 -15 15 -8 0
-15 -7 -15 -15z" />
        <path d="M1100 1707 c0 -19 10 -27 26 -20 21 8 17 33 -6 33 -11 0 -20 -6 -20
-13z" />
        <path d="M3982 1657 c-43 -19 -37 -88 8 -102 32 -10 70 20 70 54 0 43 -38 66
-78 48z" />
        <path d="M4144 1645 c-18 -19 -23 -31 -19 -48 14 -46 68 -62 98 -29 24 26 21
68 -5 86 -31 22 -45 20 -74 -9z" />
        <path d="M3280 1642 c-18 -14 -21 -25 -16 -45 7 -31 48 -46 71 -27 22 18 19
67 -4 80 -25 13 -25 13 -51 -8z" />
        <path d="M3444 1635 c-15 -23 -15 -27 0 -50 28 -42 86 -28 86 21 0 52 -58 71
-86 29z" />
        <path d="M3621 1646 c-16 -19 -10 -66 10 -79 26 -16 68 0 75 29 12 47 -55 87
-85 50z" />
        <path d="M3790 1639 c-16 -30 -8 -62 19 -75 50 -25 96 26 65 73 -19 30 -69 31
-84 2z" />
        <path d="M2588 1639 c-30 -17 -16 -69 18 -69 14 0 44 27 44 40 0 10 -29 40
-38 40 -4 0 -15 -5 -24 -11z" />
        <path d="M2749 1626 c-9 -20 -9 -29 1 -41 28 -34 87 5 64 43 -18 28 -52 27
-65 -2z" />
        <path d="M2924 1636 c-3 -8 -4 -25 -2 -38 2 -18 9 -23 32 -23 36 0 56 27 40
53 -14 22 -62 28 -70 8z" />
        <path d="M3102 1638 c-19 -19 -14 -56 9 -68 16 -9 26 -8 45 5 27 17 29 27 14
56 -12 21 -50 25 -68 7z" />
        <path d="M1723 1633 c-15 -5 -17 -39 -4 -47 14 -9 41 4 41 19 0 17 -22 33 -37
28z" />
        <path d="M1893 1633 c-18 -7 -16 -42 3 -50 8 -3 23 1 31 10 13 13 14 19 3 31
-13 17 -17 18 -37 9z" />
        <path d="M2061 1627 c-17 -21 -3 -49 23 -45 15 2 21 10 21 28 0 28 -26 38 -44
17z" />
        <path d="M2231 1623 c-13 -26 1 -45 30 -41 18 2 24 9 24 28 0 32 -39 41 -54
13z" />
        <path d="M2407 1634 c-12 -12 -8 -41 7 -53 22 -18 58 4 54 32 -3 22 -45 36
-61 21z" />
        <path d="M1024 1616 c-8 -22 3 -33 18 -18 9 9 9 15 0 24 -9 9 -13 7 -18 -6z" />
        <path d="M1197 1624 c-14 -14 -7 -35 11 -32 9 2 17 10 17 17 0 16 -18 25 -28
15z" />
        <path d="M1365 1620 c-8 -14 3 -30 21 -30 8 0 14 9 14 20 0 21 -24 28 -35 10z" />
        <path d="M1535 1620 c-9 -15 14 -40 31 -33 22 8 18 43 -5 43 -11 0 -23 -5 -26
-10z" />
        <path d="M500 1610 c0 -5 5 -10 10 -10 6 0 10 5 10 10 0 6 -4 10 -10 10 -5 0
-10 -4 -10 -10z" />
        <path d="M670 1610 c0 -5 5 -10 10 -10 6 0 10 5 10 10 0 6 -4 10 -10 10 -5 0
-10 -4 -10 -10z" />
        <path d="M842 1609 c2 -6 8 -10 13 -10 5 0 11 4 13 10 2 6 -4 11 -13 11 -9 0
-15 -5 -13 -11z" />
        <path d="M3542 1554 c-39 -27 -19 -94 27 -94 24 0 51 31 51 58 0 18 -33 52
-50 52 -3 0 -16 -7 -28 -16z" />
        <path d="M3712 1554 c-41 -28 -16 -94 36 -94 21 0 52 34 52 57 0 17 -36 53
-53 53 -7 0 -23 -7 -35 -16z" />
        <path d="M3880 1550 c-11 -11 -20 -28 -20 -38 0 -41 69 -69 98 -40 20 20 15
76 -7 88 -29 15 -49 12 -71 -10z" />
        <path d="M4056 1557 c-23 -16 -24 -63 -3 -84 21 -21 68 -20 84 3 42 57 -24
123 -81 81z" />
        <path d="M4226 1554 c-36 -36 -6 -104 46 -104 23 0 58 39 58 65 0 47 -70 73
-104 39z" />
        <path d="M2846 1547 c-22 -16 -18 -55 7 -71 39 -24 79 44 41 71 -10 7 -21 13
-24 13 -3 0 -14 -6 -24 -13z" />
        <path d="M3018 1549 c-21 -12 -24 -49 -6 -67 18 -18 56 -14 68 7 14 27 13 37
-6 55 -18 18 -32 20 -56 5z" />
        <path d="M3186 1545 c-19 -19 -20 -29 -6 -56 16 -28 68 -26 79 4 18 46 -38 86
-73 52z" />
        <path d="M3364 1552 c-29 -20 -25 -65 8 -83 42 -23 90 45 56 79 -13 13 -47 16
-64 4z" />
        <path d="M1974 1536 c-20 -15 -13 -43 12 -53 10 -4 22 1 30 11 24 33 -9 66
-42 42z" />
        <path d="M2152 1541 c-8 -4 -12 -19 -10 -32 2 -18 9 -24 28 -24 28 0 39 27 20
50 -14 17 -20 18 -38 6z" />
        <path d="M2320 1535 c-19 -23 -8 -50 22 -53 19 -2 28 2 33 18 12 39 -29 66
-55 35z" />
        <path d="M2490 1535 c-18 -21 -3 -55 24 -55 33 0 50 23 36 49 -12 24 -42 27
-60 6z" />
        <path d="M2662 1538 c-17 -17 -15 -32 9 -54 27 -24 54 -8 54 32 0 24 -5 30
-25 32 -14 2 -31 -3 -38 -10z" />
        <path d="M1280 1526 c-13 -17 -6 -36 15 -36 19 0 26 27 11 39 -10 8 -17 7 -26
-3z" />
        <path d="M1452 1527 c-15 -17 1 -42 23 -33 18 6 17 37 -1 43 -6 2 -16 -2 -22
-10z" />
        <path d="M1624 1525 c-4 -9 -2 -21 4 -27 15 -15 44 -1 40 19 -4 23 -36 29 -44
8z" />
        <path d="M1793 1524 c-3 -8 2 -23 11 -32 15 -15 17 -15 32 0 21 21 11 48 -16
48 -11 0 -23 -7 -27 -16z" />
        <path d="M585 1519 c-10 -15 3 -25 16 -12 7 7 7 13 1 17 -6 3 -14 1 -17 -5z" />
        <path d="M757 1524 c-8 -8 1 -24 14 -24 5 0 9 7 9 15 0 15 -12 20 -23 9z" />
        <path d="M930 1515 c0 -8 7 -15 15 -15 8 0 15 7 15 15 0 8 -7 15 -15 15 -8 0
-15 -7 -15 -15z" />
        <path d="M1100 1516 c0 -8 4 -17 8 -20 13 -8 35 11 28 23 -10 16 -36 14 -36
-3z" />
        <path d="M410 1509 c0 -5 5 -7 10 -4 6 3 10 8 10 11 0 2 -4 4 -10 4 -5 0 -10
-5 -10 -11z" />
        <path d="M4144 1455 c-27 -27 -26 -59 4 -82 57 -45 123 36 72 87 -27 27 -46
25 -76 -5z" />
        <path d="M3279 1451 c-30 -24 -20 -68 18 -77 20 -5 31 -2 44 15 36 45 -17 98
-62 62z" />
        <path d="M3450 1450 c-25 -25 -25 -42 -2 -63 51 -46 115 19 66 67 -21 21 -40
20 -64 -4z" />
        <path d="M3628 1459 c-22 -12 -24 -62 -4 -78 46 -38 111 25 71 69 -20 22 -41
25 -67 9z" />
        <path d="M3796 1454 c-23 -23 -20 -61 7 -78 30 -20 66 -10 78 22 20 52 -46 96
-85 56z" />
        <path d="M3965 1450 c-41 -46 29 -116 75 -75 22 20 27 64 8 83 -19 19 -63 14
-83 -8z" />
        <path d="M2588 1449 c-33 -19 -15 -69 24 -69 9 0 22 9 28 21 9 16 8 25 -6 40
-20 22 -22 22 -46 8z" />
        <path d="M2756 1444 c-31 -30 -8 -69 36 -62 26 3 37 41 18 64 -16 18 -35 18
-54 -2z" />
        <path d="M2931 1446 c-7 -8 -11 -25 -9 -38 2 -18 9 -23 32 -23 36 0 56 27 40
53 -14 22 -48 27 -63 8z" />
        <path d="M3102 1448 c-21 -21 -14 -57 13 -70 22 -10 29 -9 47 10 19 18 20 25
10 47 -13 27 -49 34 -70 13z" />
        <path d="M1892 1441 c-20 -12 -10 -46 14 -49 25 -4 40 24 23 44 -13 16 -19 17
-37 5z" />
        <path d="M2060 1436 c-18 -22 -5 -48 22 -44 17 2 23 10 23 28 0 29 -26 38 -45
16z" />
        <path d="M2231 1431 c-8 -15 -7 -23 5 -35 21 -22 56 -3 52 27 -4 30 -43 35
-57 8z" />
        <path d="M2404 1435 c-14 -37 26 -69 53 -42 22 22 8 57 -23 57 -14 0 -27 -7
-30 -15z" />
        <path d="M1024 1426 c-8 -22 3 -33 18 -18 9 9 9 15 0 24 -9 9 -13 7 -18 -6z" />
        <path d="M1197 1434 c-14 -14 -7 -35 11 -32 9 2 17 10 17 17 0 16 -18 25 -28
15z" />
        <path d="M1365 1430 c-8 -14 3 -30 21 -30 8 0 14 9 14 20 0 21 -24 28 -35 10z" />
        <path d="M1534 1429 c-3 -6 0 -18 9 -26 18 -18 37 -9 37 18 0 21 -34 27 -46 8z" />
        <path d="M1712 1418 c2 -15 10 -23 23 -23 30 0 27 39 -3 43 -20 3 -23 0 -20
-20z" />
        <path d="M500 1420 c0 -5 5 -10 10 -10 6 0 10 5 10 10 0 6 -4 10 -10 10 -5 0
-10 -4 -10 -10z" />
        <path d="M670 1420 c0 -5 7 -10 16 -10 8 0 12 5 9 10 -3 6 -10 10 -16 10 -5 0
-9 -4 -9 -10z" />
        <path d="M847 1424 c-8 -8 1 -24 14 -24 5 0 9 7 9 15 0 15 -12 20 -23 9z" />
        <path d="M4406 1369 c-23 -18 -27 -28 -23 -54 5 -28 3 -32 -14 -28 -31 8 -69
-23 -69 -57 0 -39 25 -62 63 -58 41 4 68 47 50 77 -11 18 -10 19 21 14 27 -4
36 -1 54 22 27 34 27 47 5 73 -28 32 -56 35 -87 11z" />
        <path d="M3712 1364 c-41 -29 -19 -94 33 -94 24 0 55 33 55 57 0 17 -36 53
-53 53 -7 0 -23 -7 -35 -16z" />
        <path d="M3880 1360 c-25 -25 -25 -52 -1 -74 44 -40 115 8 89 58 -22 41 -57
47 -88 16z" />
        <path d="M4056 1367 c-26 -19 -24 -67 4 -89 27 -22 39 -22 68 -2 42 29 18 104
-34 104 -11 0 -28 -6 -38 -13z" />
        <path d="M4227 1362 c-36 -39 -7 -102 45 -102 25 0 58 36 58 63 0 50 -70 76
-103 39z" />
        <path d="M2846 1358 c-19 -11 -21 -49 -4 -66 30 -30 75 0 64 42 -7 27 -35 38
-60 24z" />
        <path d="M3018 1359 c-21 -12 -24 -49 -6 -67 39 -39 100 17 63 58 -20 22 -32
24 -57 9z" />
        <path d="M3186 1355 c-33 -33 -13 -75 36 -75 20 0 31 7 37 23 18 46 -38 86
-73 52z" />
        <path d="M3355 1347 c-18 -27 -12 -53 17 -68 27 -15 57 -2 64 28 14 55 -50 87
-81 40z" />
        <path d="M3531 1356 c-38 -46 25 -111 69 -71 22 20 26 55 8 73 -17 17 -63 15
-77 -2z" />
        <path d="M2152 1351 c-8 -4 -12 -19 -10 -32 2 -18 9 -24 28 -24 28 0 39 27 20
50 -14 17 -20 18 -38 6z" />
        <path d="M2320 1345 c-20 -25 -8 -50 25 -50 21 0 31 5 33 18 4 21 -14 47 -33
47 -7 0 -18 -7 -25 -15z" />
        <path d="M2492 1348 c-18 -18 -14 -46 7 -58 38 -20 71 13 51 51 -12 21 -40 25
-58 7z" />
        <path d="M2661 1341 c-14 -25 -5 -48 20 -56 27 -9 51 13 47 44 -4 34 -51 43
-67 12z" />
        <path d="M1280 1336 c-13 -17 -6 -36 15 -36 19 0 26 27 11 39 -10 8 -17 7 -26
-3z" />
        <path d="M1453 1339 c-16 -16 -5 -39 19 -39 14 0 19 6 16 22 -4 25 -19 33 -35
17z" />
        <path d="M1627 1344 c-4 -4 -7 -16 -7 -26 0 -14 6 -19 23 -16 14 2 22 10 22
23 0 20 -25 32 -38 19z" />
        <path d="M1793 1334 c-3 -8 2 -23 11 -32 14 -15 18 -15 31 -1 9 9 13 23 9 32
-8 21 -43 22 -51 1z" />
        <path d="M1966 1334 c-7 -19 10 -44 30 -44 20 0 36 34 22 48 -17 17 -45 15
-52 -4z" />
        <path d="M585 1329 c-10 -15 3 -25 16 -12 7 7 7 13 1 17 -6 3 -14 1 -17 -5z" />
        <path d="M757 1334 c-8 -8 1 -24 14 -24 5 0 9 7 9 15 0 15 -12 20 -23 9z" />
        <path d="M932 1324 c4 -21 22 -23 26 -1 2 10 -3 17 -13 17 -10 0 -15 -6 -13
-16z" />
        <path d="M1102 1323 c4 -21 33 -25 33 -3 0 8 -8 16 -18 18 -14 3 -18 -1 -15
-15z" />
        <path d="M410 1320 c0 -5 5 -10 10 -10 6 0 10 5 10 10 0 6 -4 10 -10 10 -5 0
-10 -4 -10 -10z" />
        <path d="M4163 1279 c-51 -19 -49 -92 3 -105 48 -12 85 27 69 72 -12 31 -41
45 -72 33z" />
        <path d="M3450 1260 c-24 -24 -25 -43 -4 -64 18 -19 55 -21 72 -4 18 18 15 53
-6 71 -24 22 -38 21 -62 -3z" />
        <path d="M3628 1269 c-25 -14 -23 -64 3 -83 47 -32 102 32 64 74 -20 22 -41
25 -67 9z" />
        <path d="M3796 1264 c-40 -40 7 -109 59 -86 32 15 41 47 21 77 -19 29 -57 33
-80 9z" />
        <path d="M3967 1262 c-22 -25 -21 -48 3 -72 24 -24 53 -26 74 -4 19 18 21 65
4 82 -18 18 -63 14 -81 -6z" />
        <path d="M2756 1254 c-31 -30 -8 -69 36 -62 26 3 37 41 18 64 -16 18 -35 18
-54 -2z" />
        <path d="M2926 1249 c-17 -24 -12 -45 14 -59 25 -14 49 -2 56 26 12 48 -41 73
-70 33z" />
        <path d="M3102 1258 c-21 -21 -14 -57 13 -70 22 -10 29 -9 47 10 19 18 20 25
10 47 -13 27 -49 34 -70 13z" />
        <path d="M3271 1256 c-20 -23 -5 -65 24 -72 35 -9 57 12 53 50 -3 27 -7 31
-34 34 -19 2 -36 -3 -43 -12z" />
        <path d="M1890 1245 c-7 -8 -10 -22 -6 -30 7 -20 42 -19 50 1 8 22 8 22 -13
33 -14 8 -22 7 -31 -4z" />
        <path d="M2060 1246 c-18 -22 -5 -48 22 -44 17 2 23 10 23 28 0 29 -26 38 -45
16z" />
        <path d="M2230 1241 c-7 -15 -6 -24 6 -36 9 -9 21 -14 27 -12 18 6 31 33 24
51 -9 22 -44 20 -57 -3z" />
        <path d="M2407 1253 c-15 -15 -6 -52 14 -58 28 -9 53 16 44 44 -6 20 -43 29
-58 14z" />
        <path d="M2573 1244 c-8 -21 9 -48 32 -53 26 -5 47 26 34 50 -12 23 -57 25
-66 3z" />
        <path d="M1197 1244 c-14 -14 -7 -35 11 -32 9 2 17 10 17 17 0 16 -18 25 -28
15z" />
        <path d="M1365 1240 c-8 -13 14 -42 26 -34 5 3 9 14 9 25 0 20 -24 26 -35 9z" />
        <path d="M1537 1236 c-8 -20 20 -43 35 -28 14 14 3 42 -16 42 -7 0 -16 -6 -19
-14z" />
        <path d="M1712 1228 c4 -30 43 -33 43 -3 0 13 -8 21 -23 23 -20 3 -23 0 -20
-20z" />
        <path d="M500 1230 c0 -5 5 -10 10 -10 6 0 10 5 10 10 0 6 -4 10 -10 10 -5 0
-10 -4 -10 -10z" />
        <path d="M672 1231 c2 -7 7 -12 11 -12 12 1 9 15 -3 20 -7 2 -11 -2 -8 -8z" />
        <path d="M847 1234 c-8 -8 1 -24 14 -24 5 0 9 7 9 15 0 15 -12 20 -23 9z" />
        <path d="M1020 1224 c0 -17 22 -14 28 4 2 7 -3 12 -12 12 -9 0 -16 -7 -16 -16z" />
        <path d="M3712 1174 c-41 -29 -19 -94 33 -94 23 0 55 32 55 55 0 38 -55 62
-88 39z" />
        <path d="M3880 1170 c-27 -27 -25 -55 6 -79 56 -44 119 34 66 82 -25 22 -48
21 -72 -3z" />
        <path d="M4064 1182 c-39 -25 -33 -84 10 -103 56 -26 104 53 58 94 -19 18 -49
22 -68 9z" />
        <path d="M4227 1172 c-53 -58 28 -137 83 -82 24 24 25 48 4 78 -19 27 -64 29
-87 4z" />
        <path d="M3016 1164 c-30 -30 -13 -74 29 -74 43 0 59 44 27 73 -23 21 -36 21
-56 1z" />
        <path d="M3187 1162 c-24 -26 -21 -49 7 -67 45 -30 91 16 61 61 -19 29 -46 31
-68 6z" />
        <path d="M3355 1156 c-13 -19 -14 -29 -6 -45 25 -45 91 -33 91 17 0 54 -56 72
-85 28z" />
        <path d="M3532 1168 c-20 -20 -15 -66 9 -78 49 -27 96 20 69 69 -12 24 -58 29
-78 9z" />
        <path d="M2320 1155 c-20 -25 -8 -50 25 -50 21 0 31 5 33 18 4 21 -14 47 -33
47 -7 0 -18 -7 -25 -15z" />
        <path d="M2492 1158 c-18 -18 -14 -46 7 -58 38 -20 71 13 51 51 -12 21 -40 25
-58 7z" />
        <path d="M2661 1151 c-14 -25 -5 -48 20 -56 27 -9 51 13 47 44 -4 34 -51 43
-67 12z" />
        <path d="M2834 1156 c-15 -40 21 -80 54 -60 37 24 21 74 -25 74 -13 0 -26 -6
-29 -14z" />
        <path d="M1453 1149 c-16 -16 -5 -39 19 -39 14 0 19 6 16 22 -4 25 -19 33 -35
17z" />
        <path d="M1627 1153 c-12 -12 -7 -41 7 -46 19 -7 40 18 32 38 -6 15 -28 20
-39 8z" />
        <path d="M1793 1144 c-3 -8 2 -23 11 -32 14 -15 18 -15 31 -1 9 9 13 23 9 32
-8 21 -43 22 -51 1z" />
        <path d="M1966 1144 c-9 -22 17 -49 39 -40 10 3 15 15 13 28 -4 29 -42 37 -52
12z" />
        <path d="M2142 1133 c2 -22 8 -28 28 -28 20 0 25 5 25 25 0 20 -6 26 -28 28
-26 3 -28 1 -25 -25z" />
        <path d="M757 1144 c-8 -8 1 -24 14 -24 5 0 9 7 9 15 0 15 -12 20 -23 9z" />
        <path d="M932 1136 c1 -10 8 -17 13 -17 15 1 12 24 -3 29 -9 3 -13 -2 -10 -12z" />
        <path d="M1102 1133 c4 -21 33 -25 33 -3 0 8 -8 16 -18 18 -14 3 -18 -1 -15
-15z" />
        <path d="M1275 1140 c-8 -13 3 -30 20 -30 14 0 27 24 18 34 -10 9 -31 7 -38
-4z" />
        <path d="M410 1130 c0 -5 5 -10 10 -10 6 0 10 5 10 10 0 6 -4 10 -10 10 -5 0
-10 -4 -10 -10z" />
        <path d="M580 1130 c0 -5 4 -10 9 -10 6 0 13 5 16 10 3 6 -1 10 -9 10 -9 0
-16 -4 -16 -10z" />
        <path d="M4322 1084 c-24 -16 -29 -53 -12 -85 14 -25 71 -26 93 -1 24 27 21
58 -9 81 -32 25 -43 26 -72 5z" />
        <path d="M3450 1070 c-23 -23 -24 -33 -10 -61 12 -22 59 -26 78 -7 19 19 14
55 -10 72 -29 20 -34 20 -58 -4z" />
        <path d="M3626 1074 c-24 -23 -20 -61 8 -79 51 -34 103 39 56 77 -27 22 -44
23 -64 2z" />
        <path d="M3797 1072 c-23 -25 -21 -55 3 -77 25 -23 67 -13 82 20 24 53 -46
100 -85 57z" />
        <path d="M3967 1072 c-21 -23 -21 -41 -1 -70 18 -26 56 -29 78 -6 19 18 21 65
4 82 -18 18 -63 14 -81 -6z" />
        <path d="M4133 1064 c-15 -24 -15 -29 -2 -53 28 -50 109 -32 109 25 0 55 -76
75 -107 28z" />
        <path d="M2754 1059 c-24 -27 -8 -54 32 -54 23 0 30 5 32 24 3 15 -3 30 -14
38 -24 17 -28 17 -50 -8z" />
        <path d="M2932 1068 c-18 -18 -14 -56 7 -68 26 -14 50 -3 57 26 11 42 -34 72
-64 42z" />
        <path d="M3102 1068 c-26 -26 -7 -78 28 -78 9 0 25 9 35 20 37 41 -24 97 -63
58z" />
        <path d="M3270 1064 c-21 -24 -1 -68 32 -72 45 -5 70 55 34 80 -19 13 -53 9
-66 -8z" />
        <path d="M2062 1058 c-7 -7 -12 -18 -12 -25 0 -15 30 -32 48 -26 17 7 15 50
-4 57 -20 8 -18 8 -32 -6z" />
        <path d="M2231 1051 c-15 -27 11 -60 36 -45 23 14 29 44 11 55 -21 14 -37 10
-47 -10z" />
        <path d="M2407 1064 c-15 -16 -7 -53 14 -59 30 -10 58 19 43 43 -12 18 -45 28
-57 16z" />
        <path d="M2573 1054 c-16 -41 46 -73 67 -34 9 16 8 25 -1 36 -16 19 -58 18
-66 -2z" />
        <path d="M1193 1044 c-7 -19 2 -28 22 -21 19 8 19 23 0 31 -9 3 -18 -1 -22
-10z" />
        <path d="M1363 1044 c-8 -20 17 -36 34 -22 10 8 10 14 2 24 -15 18 -28 18 -36
-2z" />
        <path d="M1537 1046 c-8 -20 20 -43 35 -28 14 14 3 42 -16 42 -7 0 -16 -6 -19
-14z" />
        <path d="M1712 1038 c4 -30 43 -33 43 -3 0 13 -8 21 -23 23 -20 3 -23 0 -20
-20z" />
        <path d="M1884 1045 c-8 -19 3 -35 26 -35 19 0 34 25 24 41 -8 14 -44 10 -50
-6z" />
        <path d="M500 1040 c0 -5 5 -10 11 -10 5 0 7 5 4 10 -3 6 -8 10 -11 10 -2 0
-4 -4 -4 -10z" />
        <path d="M672 1041 c2 -7 7 -12 11 -12 12 1 9 15 -3 20 -7 2 -11 -2 -8 -8z" />
        <path d="M847 1044 c-8 -8 1 -24 14 -24 5 0 9 7 9 15 0 15 -12 20 -23 9z" />
        <path d="M1020 1035 c0 -8 7 -15 15 -15 8 0 15 7 15 15 0 8 -7 15 -15 15 -8 0
-15 -7 -15 -15z" />
        <path d="M3880 980 c-32 -32 -24 -75 18 -91 58 -22 101 60 50 95 -30 21 -44
20 -68 -4z" />
        <path d="M4051 974 c-12 -15 -21 -30 -21 -34 0 -16 43 -60 59 -60 52 0 81 69
43 103 -27 24 -58 21 -81 -9z" />
        <path d="M4227 982 c-53 -58 28 -137 83 -82 24 24 25 48 4 78 -19 27 -64 29
-87 4z" />
        <path d="M3022 974 c-38 -26 -22 -74 24 -74 45 0 58 50 19 76 -18 12 -24 11
-43 -2z" />
        <path d="M3187 972 c-10 -10 -17 -26 -17 -35 0 -15 35 -47 52 -47 11 0 48 38
48 50 0 15 -38 50 -53 50 -8 0 -21 -8 -30 -18z" />
        <path d="M3354 965 c-15 -23 -15 -27 0 -50 28 -43 86 -26 86 25 0 51 -58 68
-86 25z" />
        <path d="M3532 978 c-7 -7 -12 -24 -12 -38 0 -14 5 -31 12 -38 28 -28 88 -2
88 38 0 40 -60 66 -88 38z" />
        <path d="M3698 965 c-8 -19 -8 -31 0 -51 17 -35 70 -31 91 8 14 24 14 28 -3
47 -27 30 -73 28 -88 -4z" />
        <path d="M2322 968 c-30 -30 3 -77 40 -57 24 13 23 46 -1 59 -24 13 -24 13
-39 -2z" />
        <path d="M2492 968 c-18 -18 -14 -46 7 -58 38 -20 71 13 51 51 -12 21 -40 25
-58 7z" />
        <path d="M2660 960 c-13 -23 2 -60 25 -60 30 0 45 13 45 40 0 42 -51 56 -70
20z" />
        <path d="M2834 966 c-3 -8 -4 -25 -2 -38 2 -18 9 -23 32 -23 36 0 56 27 40 53
-14 22 -62 28 -70 8z" />
        <path d="M1627 963 c-22 -21 2 -56 31 -46 17 7 15 40 -4 47 -19 7 -19 7 -27
-1z" />
        <path d="M1797 963 c-13 -12 -7 -41 10 -47 9 -4 23 0 31 8 13 12 13 18 2 30
-13 17 -32 21 -43 9z" />
        <path d="M1966 954 c-9 -22 17 -49 39 -40 10 3 15 15 13 28 -4 29 -42 37 -52
12z" />
        <path d="M2142 957 c-16 -19 8 -50 34 -45 28 5 26 52 -2 56 -11 2 -26 -3 -32
-11z" />
        <path d="M756 952 c-3 -6 -1 -14 5 -17 15 -10 25 3 12 16 -7 7 -13 7 -17 1z" />
        <path d="M935 950 c-4 -6 -3 -16 3 -22 6 -6 12 -6 17 2 4 6 3 16 -3 22 -6 6
-12 6 -17 -2z" />
        <path d="M1104 949 c-10 -17 13 -36 27 -22 12 12 4 33 -11 33 -5 0 -12 -5 -16
-11z" />
        <path d="M1275 950 c-8 -13 3 -30 20 -30 14 0 27 24 18 34 -10 9 -31 7 -38 -4z" />
        <path d="M1447 946 c-7 -18 1 -26 25 -26 11 0 18 7 18 20 0 23 -35 28 -43 6z" />
        <path d="M410 940 c0 -5 5 -10 10 -10 6 0 10 5 10 10 0 6 -4 10 -10 10 -5 0
-10 -4 -10 -10z" />
        <path d="M580 940 c0 -5 7 -10 15 -10 8 0 15 5 15 10 0 6 -7 10 -15 10 -8 0
-15 -4 -15 -10z" />
        <path d="M4330 897 c-20 -10 -25 -20 -25 -52 0 -34 4 -42 29 -53 25 -13 31
-12 55 5 37 28 39 65 5 92 -31 25 -31 25 -64 8z" />
        <path d="M3626 884 c-30 -30 -10 -94 30 -94 20 0 54 37 54 59 0 20 -34 51 -57
51 -6 0 -19 -7 -27 -16z" />
        <path d="M3797 882 c-10 -10 -17 -28 -17 -39 0 -23 30 -53 53 -53 21 0 57 35
57 55 0 21 -36 55 -58 55 -11 0 -26 -8 -35 -18z" />
        <path d="M3965 880 c-15 -16 -17 -26 -9 -47 13 -37 37 -49 71 -37 22 7 29 16
31 44 6 56 -55 82 -93 40z" />
        <path d="M4133 874 c-15 -24 -15 -29 -2 -53 28 -50 109 -34 109 23 0 55 -76
76 -107 30z" />
        <path d="M2762 874 c-12 -8 -22 -21 -22 -29 0 -8 10 -21 22 -29 28 -20 58 -4
58 29 0 33 -30 49 -58 29z" />
        <path d="M2932 878 c-30 -30 -2 -86 37 -73 30 9 39 54 16 72 -23 16 -37 17
-53 1z" />
        <path d="M3102 878 c-27 -27 -7 -78 29 -78 21 0 49 26 49 45 0 35 -53 58 -78
33z" />
        <path d="M3270 874 c-10 -11 -11 -23 -4 -42 12 -34 59 -38 80 -7 29 44 -43 90
-76 49z" />
        <path d="M3439 869 c-17 -33 3 -69 39 -69 33 0 52 16 52 45 0 29 -19 45 -52
45 -18 0 -31 -7 -39 -21z" />
        <path d="M2062 868 c-7 -7 -12 -18 -12 -25 0 -15 30 -32 48 -26 17 7 15 50 -4
57 -20 8 -18 8 -32 -6z" />
        <path d="M2231 861 c-13 -24 9 -57 33 -48 23 9 31 34 16 52 -17 20 -37 19 -49
-4z" />
        <path d="M2404 866 c-11 -28 1 -51 25 -51 32 0 49 28 32 49 -17 20 -50 21 -57
2z" />
        <path d="M2575 861 c-9 -28 5 -51 31 -51 29 0 46 28 33 52 -13 24 -56 23 -64
-1z" />
        <path d="M1363 854 c-8 -20 17 -36 34 -22 10 8 10 14 2 24 -15 18 -28 18 -36
-2z" />
        <path d="M1537 857 c-3 -8 -2 -20 3 -27 11 -18 42 -4 38 17 -4 22 -34 29 -41
10z" />
        <path d="M1714 855 c-4 -9 -2 -21 4 -27 15 -15 44 -1 40 19 -4 23 -36 29 -44
8z" />
        <path d="M1884 855 c-8 -19 3 -35 26 -35 19 0 34 25 24 41 -8 14 -44 10 -50
-6z" />
        <path d="M676 851 c-4 -5 -2 -12 3 -15 5 -4 12 -2 15 3 4 5 2 12 -3 15 -5 4
-12 2 -15 -3z" />
        <path d="M847 854 c-8 -8 1 -24 14 -24 5 0 9 7 9 15 0 15 -12 20 -23 9z" />
        <path d="M1020 845 c0 -8 7 -15 15 -15 8 0 15 7 15 15 0 8 -7 15 -15 15 -8 0
-15 -7 -15 -15z" />
        <path d="M1190 845 c0 -10 7 -15 18 -13 21 4 19 22 -2 26 -10 2 -16 -3 -16
-13z" />
        <path d="M3892 798 c-27 -14 -38 -49 -22 -77 12 -24 68 -29 88 -9 20 20 14 65
-10 82 -26 18 -25 18 -56 4z" />
        <path d="M4051 784 c-19 -25 -19 -45 2 -71 12 -16 69 -17 85 -1 20 20 14 65
-10 82 -32 23 -54 20 -77 -10z" />
        <path d="M3192 784 c-27 -18 -28 -45 -4 -67 25 -23 48 -21 66 5 20 29 20 34
-4 58 -24 24 -29 24 -58 4z" />
        <path d="M3354 775 c-15 -23 -15 -27 0 -50 30 -45 86 -28 86 27 0 49 -59 65
-86 23z" />
        <path d="M3532 788 c-7 -7 -12 -24 -12 -38 0 -34 17 -50 52 -50 27 0 48 23 48
54 0 37 -61 61 -88 34z" />
        <path d="M3698 775 c-17 -38 3 -75 40 -75 31 0 62 26 62 52 0 47 -82 65 -102
23z" />
        <path d="M2327 779 c-21 -12 -22 -42 -3 -58 20 -16 56 3 56 29 0 25 -30 41
-53 29z" />
        <path d="M2498 779 c-33 -19 -15 -69 24 -69 15 0 38 27 38 44 0 7 -31 36 -38
36 -4 0 -15 -5 -24 -11z" />
        <path d="M2660 770 c-8 -14 -8 -26 0 -40 18 -33 70 -23 70 14 0 45 -50 63 -70
26z" />
        <path d="M2834 776 c-3 -8 -4 -25 -2 -38 2 -18 9 -23 32 -23 36 0 56 27 40 53
-14 22 -62 28 -70 8z" />
        <path d="M3010 775 c-17 -20 -5 -61 19 -68 25 -6 61 19 61 42 0 38 -55 56 -80
26z" />
        <path d="M1633 773 c-15 -5 -17 -39 -4 -47 14 -9 41 4 41 19 0 17 -22 33 -37
28z" />
        <path d="M1794 765 c-8 -21 2 -45 19 -45 8 0 20 7 27 15 10 12 10 18 0 30 -7
8 -19 15 -27 15 -7 0 -16 -7 -19 -15z" />
        <path d="M1971 767 c-17 -21 -3 -49 23 -45 15 2 21 10 21 28 0 28 -26 38 -44
17z" />
        <path d="M2144 766 c-10 -26 4 -48 28 -44 17 2 23 10 23 28 0 18 -6 26 -23 28
-13 2 -25 -3 -28 -12z" />
        <path d="M935 760 c-4 -6 -3 -16 3 -22 6 -6 12 -6 17 2 4 6 3 16 -3 22 -6 6
-12 6 -17 -2z" />
        <path d="M1104 759 c-10 -17 13 -36 27 -22 12 12 4 33 -11 33 -5 0 -12 -5 -16
-11z" />
        <path d="M1275 760 c-4 -7 -3 -16 3 -22 14 -14 45 -2 40 15 -6 16 -34 21 -43
7z" />
        <path d="M1447 756 c-7 -18 1 -26 25 -26 11 0 18 7 18 20 0 23 -35 28 -43 6z" />
        <path d="M410 750 c0 -5 5 -10 10 -10 6 0 10 5 10 10 0 6 -4 10 -10 10 -5 0
-10 -4 -10 -10z" />
        <path d="M580 750 c0 -5 7 -10 15 -10 8 0 15 5 15 10 0 6 -7 10 -15 10 -8 0
-15 -4 -15 -10z" />
        <path d="M755 751 c-6 -11 9 -23 19 -14 9 9 7 23 -3 23 -6 0 -12 -4 -16 -9z" />
        <path d="M3632 694 c-28 -20 -30 -69 -3 -84 29 -15 29 -15 33 45 1 30 1 55 -2
55 -3 0 -16 -7 -28 -16z" />
        <path d="M3818 703 c6 -2 18 -2 25 0 6 3 1 5 -13 5 -14 0 -19 -2 -12 -5z" />
        <path d="M3980 706 c0 -2 13 -6 29 -8 17 -2 28 -1 25 4 -5 8 -54 12 -54 4z" />
        <path d="M4150 702 c0 -5 14 -7 30 -4 17 2 30 6 30 8 0 2 -13 4 -30 4 -16 0
-30 -4 -30 -8z" />
        <path d="M2936 687 c-38 -27 2 -95 42 -71 23 15 27 48 7 68 -20 19 -26 20 -49
3z" />
        <path d="M3102 688 c-29 -29 -7 -78 35 -78 35 0 52 43 28 70 -20 23 -45 26
-63 8z" />
        <path d="M3268 676 c-20 -45 8 -74 57 -62 19 5 25 13 25 34 0 34 -16 52 -47
52 -15 0 -27 -9 -35 -24z" />
        <path d="M3446 684 c-19 -19 -20 -35 -3 -56 19 -24 43 -28 66 -12 23 17 28 53
9 72 -17 17 -54 15 -72 -4z" />
        <path d="M2067 678 c-21 -11 -22 -31 -3 -47 20 -16 46 -3 46 24 0 27 -19 37
-43 23z" />
        <path d="M2236 674 c-12 -12 -13 -20 -6 -35 11 -20 19 -23 44 -13 19 7 21 35
4 52 -16 16 -23 15 -42 -4z" />
        <path d="M2412 681 c-8 -4 -12 -19 -10 -32 4 -29 45 -34 61 -7 19 30 -19 60
-51 39z" />
        <path d="M2580 675 c-6 -8 -10 -22 -8 -32 4 -25 48 -30 65 -8 26 37 -27 76
-57 40z" />
        <path d="M2751 676 c-28 -33 22 -83 55 -55 8 7 14 24 12 38 -2 20 -9 27 -29
29 -14 2 -31 -4 -38 -12z" />
        <path d="M1371 671 c-15 -10 -8 -41 9 -41 15 0 25 29 14 40 -5 5 -15 5 -23 1z" />
        <path d="M1542 667 c-15 -17 1 -42 23 -33 18 6 17 37 -1 43 -6 2 -16 -2 -22
-10z" />
        <path d="M1717 674 c-4 -4 -7 -16 -7 -26 0 -14 6 -19 23 -16 14 2 22 10 22 23
0 20 -25 32 -38 19z" />
        <path d="M1884 665 c-8 -20 4 -35 26 -35 23 0 32 13 24 34 -8 20 -43 21 -50 1z" />
        <path d="M3687 673 c-4 -3 -7 -84 -7 -180 l0 -173 400 0 400 0 -2 178 -3 177
-391 3 c-215 1 -393 -1 -397 -5z m781 -175 l2 -168 -390 0 -390 0 0 170 0 170
388 -3 387 -2 3 -167z" />
        <path d="M4035 590 c3 -5 11 -10 16 -10 6 0 7 5 4 10 -3 6 -11 10 -16 10 -6 0
-7 -4 -4 -10z" />
        <path d="M4135 590 c3 -5 8 -10 11 -10 2 0 4 5 4 10 0 6 -5 10 -11 10 -5 0 -7
-4 -4 -10z" />
        <path d="M3820 586 c0 -11 32 -78 35 -74 7 7 -18 78 -27 78 -4 0 -8 -2 -8 -4z" />
        <path d="M3910 550 c0 -22 5 -40 10 -40 6 0 10 18 10 40 0 22 -4 40 -10 40 -5
0 -10 -18 -10 -40z" />
        <path d="M3984 564 c-5 -18 -1 -31 10 -42 16 -16 17 -15 5 10 -9 22 -9 31 1
43 8 10 9 15 1 15 -6 0 -14 -12 -17 -26z" />
        <path d="M4100 550 c0 -22 4 -40 9 -40 5 0 9 18 9 40 0 22 -3 40 -9 40 -5 0
-9 -18 -9 -40z" />
        <path d="M4172 578 c-17 -17 -15 -43 5 -59 15 -13 15 -12 4 9 -8 16 -9 27 -1
42 12 23 9 25 -8 8z" />
        <path d="M4236 566 c4 -16 1 -33 -7 -44 -13 -15 -12 -16 4 -3 19 15 23 56 7
66 -7 4 -9 -2 -4 -19z" />
        <path d="M4283 550 c0 -25 2 -35 4 -22 2 12 2 32 0 45 -2 12 -4 2 -4 -23z" />
        <path d="M4307 569 c-3 -12 0 -30 6 -40 16 -25 31 -25 17 0 -5 11 -7 26 -4 34
3 8 1 18 -4 21 -5 3 -12 -4 -15 -15z" />
        <path d="M3920 425 c0 -14 2 -25 4 -25 2 0 6 11 8 25 3 14 1 25 -3 25 -5 0 -9
-11 -9 -25z" />
        <path d="M3958 425 c3 -19 8 -23 15 -16 8 8 7 16 -5 27 -14 14 -15 14 -10 -11z" />
        <path d="M3992 425 c0 -16 2 -22 5 -12 2 9 2 23 0 30 -3 6 -5 -1 -5 -18z" />
        <path d="M4080 425 c0 -14 2 -25 4 -25 2 0 6 11 8 25 3 14 1 25 -3 25 -5 0 -9
-11 -9 -25z" />
        <path d="M4113 434 c-3 -8 -2 -19 3 -24 5 -5 9 1 9 16 0 28 -3 30 -12 8z" />
        <path d="M4200 425 c13 -14 25 -25 27 -25 9 0 -33 49 -41 50 -5 0 1 -11 14
-25z" />
        <path d="M4045 420 c10 -11 20 -18 23 -15 7 6 -18 35 -31 35 -5 0 -2 -9 8 -20z" />
        <path d="M4150 409 c0 -5 5 -7 10 -4 6 3 10 8 10 11 0 2 -4 4 -10 4 -5 0 -10
-5 -10 -11z" />
        <path d="M676 661 c-4 -5 -2 -12 3 -15 5 -4 12 -2 15 3 4 5 2 12 -3 15 -5 4
-12 2 -15 -3z" />
        <path d="M847 664 c-8 -8 1 -24 14 -24 5 0 9 7 9 15 0 15 -12 20 -23 9z" />
        <path d="M1020 655 c0 -8 7 -15 15 -15 8 0 15 7 15 15 0 8 -7 15 -15 15 -8 0
-15 -7 -15 -15z" />
        <path d="M1190 656 c0 -8 4 -17 8 -20 13 -8 35 11 28 23 -10 16 -36 14 -36 -3z" />
        <path d="M500 649 c0 -5 5 -7 10 -4 6 3 10 8 10 11 0 2 -4 4 -10 4 -5 0 -10
-5 -10 -11z" />
        <path d="M3192 594 c-27 -18 -28 -45 -4 -67 25 -23 48 -21 66 4 16 23 12 47
-12 67 -20 15 -23 15 -50 -4z" />
        <path d="M3360 590 c-24 -24 -24 -29 -4 -58 17 -24 53 -29 72 -10 19 19 15 66
-7 78 -28 14 -38 13 -61 -10z" />
        <path d="M3538 599 c-22 -12 -24 -62 -4 -78 46 -38 111 25 71 69 -20 22 -41
25 -67 9z" />
        <path d="M2498 589 c-33 -19 -15 -69 24 -69 15 0 38 27 38 44 0 7 -31 36 -38
36 -4 0 -15 -5 -24 -11z" />
        <path d="M2666 584 c-19 -19 -20 -25 -3 -48 19 -26 61 -18 65 12 7 44 -32 67
-62 36z" />
        <path d="M2840 586 c-6 -8 -10 -25 -8 -38 2 -18 10 -24 35 -26 28 -3 33 1 39
23 11 45 -37 75 -66 41z" />
        <path d="M3010 585 c-15 -19 -6 -61 16 -69 22 -8 64 20 64 42 0 39 -55 57 -80
27z" />
        <path d="M1632 581 c-19 -11 -11 -45 11 -49 9 -2 20 4 23 13 9 21 -16 47 -34
36z" />
        <path d="M1802 581 c-20 -12 -10 -46 14 -49 25 -4 40 24 23 44 -13 16 -19 17
-37 5z" />
        <path d="M1971 577 c-17 -21 -3 -49 23 -45 15 2 21 10 21 28 0 28 -26 38 -44
17z" />
        <path d="M2144 576 c-10 -26 4 -48 28 -44 17 2 23 10 23 28 0 18 -6 26 -23 28
-13 2 -25 -3 -28 -12z" />
        <path d="M2313 574 c-8 -22 10 -49 32 -49 10 0 22 7 28 16 15 24 1 49 -28 49
-15 0 -28 -7 -32 -16z" />
        <path d="M934 566 c-8 -22 3 -33 18 -18 9 9 9 15 0 24 -9 9 -13 7 -18 -6z" />
        <path d="M1104 569 c-10 -17 13 -36 27 -22 12 12 4 33 -11 33 -5 0 -12 -5 -16
-11z" />
        <path d="M1274 569 c-9 -15 11 -33 30 -26 9 4 13 13 10 22 -7 17 -30 20 -40 4z" />
        <path d="M1447 566 c-7 -18 11 -36 29 -29 8 3 14 14 14 24 0 22 -35 26 -43 5z" />
        <path d="M410 560 c0 -5 5 -10 10 -10 6 0 10 5 10 10 0 6 -4 10 -10 10 -5 0
-10 -4 -10 -10z" />
        <path d="M580 560 c0 -5 7 -10 16 -10 8 0 12 5 9 10 -3 6 -10 10 -16 10 -5 0
-9 -4 -9 -10z" />
        <path d="M755 561 c-6 -11 9 -23 19 -14 9 9 7 23 -3 23 -6 0 -12 -4 -16 -9z" />
        <path d="M2929 489 c-18 -18 -19 -23 -6 -42 17 -26 43 -33 62 -17 19 16 19 45
-1 64 -20 21 -30 20 -55 -5z" />
        <path d="M3108 499 c-21 -12 -24 -49 -6 -67 39 -39 100 17 63 58 -20 22 -32
24 -57 9z" />
        <path d="M3276 495 c-33 -33 -13 -75 36 -75 20 0 31 7 37 23 18 46 -38 86 -73
52z" />
        <path d="M3446 491 c-22 -25 -13 -58 20 -73 19 -9 28 -8 44 7 22 20 26 55 8
73 -18 18 -53 14 -72 -7z" />
        <path d="M3622 498 c-19 -19 -15 -66 7 -78 30 -15 31 -14 31 40 0 51 -12 64
-38 38z" />
        <path d="M2236 485 c-20 -21 -5 -55 25 -55 24 0 36 27 22 48 -14 23 -29 25
-47 7z" />
        <path d="M2410 485 c-19 -23 -8 -50 22 -53 19 -2 28 2 33 18 12 39 -29 66 -55
35z" />
        <path d="M2582 488 c-35 -35 10 -81 48 -50 19 16 21 22 11 40 -13 24 -40 29
-59 10z" />
        <path d="M2751 486 c-28 -33 22 -83 55 -55 8 7 14 24 12 38 -2 20 -9 27 -29
29 -14 2 -31 -4 -38 -12z" />
        <path d="M1542 477 c-15 -17 1 -42 23 -33 18 6 17 37 -1 43 -6 2 -16 -2 -22
-10z" />
        <path d="M1717 484 c-4 -4 -7 -16 -7 -26 0 -14 6 -19 23 -16 14 2 22 10 22 23
0 20 -25 32 -38 19z" />
        <path d="M1883 474 c-3 -8 2 -23 11 -32 14 -15 18 -15 31 -1 9 9 13 23 9 32
-8 21 -43 22 -51 1z" />
        <path d="M2054 475 c-4 -9 0 -23 9 -32 21 -21 49 -9 45 19 -4 28 -45 38 -54
13z" />
        <path d="M675 469 c-10 -15 3 -25 16 -12 7 7 7 13 1 17 -6 3 -14 1 -17 -5z" />
        <path d="M847 474 c-8 -8 1 -24 14 -24 5 0 9 7 9 15 0 15 -12 20 -23 9z" />
        <path d="M1020 466 c0 -9 7 -16 16 -16 17 0 14 22 -4 28 -7 2 -12 -3 -12 -12z" />
        <path d="M1192 463 c4 -21 33 -25 33 -3 0 8 -8 16 -18 18 -14 3 -18 -1 -15
-15z" />
        <path d="M1360 465 c0 -21 30 -31 40 -14 11 17 3 29 -21 29 -10 0 -19 -7 -19
-15z" />
        <path d="M500 459 c0 -5 5 -7 10 -4 6 3 10 8 10 11 0 2 -4 4 -10 4 -5 0 -10
-5 -10 -11z" />
        <path d="M3360 400 c-24 -24 -24 -29 -4 -58 17 -24 53 -29 72 -10 17 17 15 54
-4 72 -21 21 -40 20 -64 -4z" />
        <path d="M3538 409 c-22 -12 -24 -62 -4 -78 46 -38 111 25 71 69 -20 22 -41
25 -67 9z" />
        <path d="M2496 394 c-19 -19 -20 -36 -4 -52 18 -18 46 -14 58 9 9 16 8 25 -6
40 -21 23 -28 24 -48 3z" />
        <path d="M2666 394 c-19 -19 -20 -25 -3 -48 19 -26 61 -18 65 12 7 44 -32 67
-62 36z" />
        <path d="M2840 396 c-6 -8 -10 -25 -8 -38 2 -18 10 -24 35 -26 28 -3 33 1 39
23 11 45 -37 75 -66 41z" />
        <path d="M3010 395 c-16 -20 -5 -62 19 -70 42 -13 72 25 51 65 -13 24 -52 27
-70 5z" />
        <path d="M3180 391 c-14 -27 -13 -37 6 -55 23 -23 51 -20 69 8 13 19 14 29 5
45 -14 28 -65 29 -80 2z" />
        <path d="M1800 385 c-16 -19 -6 -45 19 -45 23 0 35 28 20 46 -15 18 -24 18
-39 -1z" />
        <path d="M1970 386 c-18 -22 -5 -46 25 -46 23 0 26 4 23 27 -3 32 -29 41 -48
19z" />
        <path d="M2147 394 c-13 -13 -7 -52 9 -58 22 -9 46 13 42 38 -3 21 -37 34 -51
20z" />
        <path d="M2314 385 c-14 -37 26 -69 53 -42 22 22 8 57 -23 57 -14 0 -27 -7
-30 -15z" />
        <path d="M1107 384 c-14 -14 -7 -35 11 -32 9 2 17 10 17 17 0 16 -18 25 -28
15z" />
        <path d="M1274 379 c-9 -15 11 -33 30 -26 9 4 13 13 10 22 -7 17 -30 20 -40 4z" />
        <path d="M1447 376 c-7 -17 18 -40 33 -31 5 3 10 15 10 26 0 23 -35 27 -43 5z" />
        <path d="M1622 368 c4 -30 43 -33 43 -3 0 13 -8 21 -23 23 -20 3 -23 0 -20
-20z" />
        <path d="M410 370 c0 -5 5 -10 10 -10 6 0 10 5 10 10 0 6 -4 10 -10 10 -5 0
-10 -4 -10 -10z" />
        <path d="M582 371 c4 -13 18 -16 19 -4 0 4 -5 9 -11 12 -7 2 -11 -2 -8 -8z" />
        <path d="M757 374 c-8 -8 1 -24 14 -24 5 0 9 7 9 15 0 15 -12 20 -23 9z" />
        <path d="M930 365 c0 -8 7 -15 15 -15 8 0 15 7 15 15 0 8 -7 15 -15 15 -8 0
-15 -7 -15 -15z" />
        <path d="M4501 364 c0 -11 3 -14 6 -6 3 7 2 16 -1 19 -3 4 -6 -2 -5 -13z" />
        <path d="M3108 309 c-21 -12 -24 -49 -6 -67 39 -39 100 17 63 58 -20 22 -32
24 -57 9z" />
        <path d="M3275 304 c-34 -35 6 -91 53 -73 15 6 22 17 22 37 0 49 -42 69 -75
36z" />
        <path d="M3445 297 c-18 -27 -12 -53 17 -68 27 -15 57 -2 64 28 14 55 -50 87
-81 40z" />
        <path d="M3621 306 c-39 -46 25 -111 69 -71 27 24 22 59 -7 63 -13 2 -23 8
-23 13 0 14 -26 11 -39 -5z" />
        <path d="M2236 295 c-20 -21 -5 -55 25 -55 24 0 36 27 22 48 -14 23 -29 25
-47 7z" />
        <path d="M2410 295 c-19 -23 -8 -50 22 -53 19 -2 28 2 33 18 12 39 -29 66 -55
35z" />
        <path d="M2582 298 c-19 -19 -14 -46 9 -59 18 -9 25 -7 41 9 16 16 18 23 9 41
-13 23 -40 28 -59 9z" />
        <path d="M2751 296 c-28 -33 22 -83 55 -55 8 7 14 24 12 38 -2 20 -9 27 -29
29 -14 2 -31 -4 -38 -12z" />
        <path d="M2927 303 c-4 -3 -7 -19 -7 -34 0 -22 6 -30 26 -35 35 -9 59 15 50
50 -5 20 -13 26 -35 26 -15 0 -31 -3 -34 -7z" />
        <path d="M1541 286 c-16 -19 -6 -36 20 -36 15 0 20 6 17 22 -4 27 -21 33 -37
14z" />
        <path d="M1717 294 c-4 -4 -7 -16 -7 -26 0 -14 6 -19 23 -16 14 2 22 10 22 23
0 20 -25 32 -38 19z" />
        <path d="M1887 293 c-13 -12 -7 -41 10 -47 9 -4 23 0 31 8 13 12 13 18 2 30
-13 17 -32 21 -43 9z" />
        <path d="M2056 284 c-9 -22 17 -49 39 -40 10 3 15 15 13 28 -4 29 -42 37 -52
12z" />
        <path d="M3780 276 c0 -54 66 -76 95 -32 25 38 10 56 -46 56 -45 0 -49 -2 -49
-24z" />
        <path d="M3957 293 c-24 -24 13 -73 54 -73 33 0 49 17 49 52 0 27 -2 28 -48
28 -27 0 -52 -3 -55 -7z" />
        <path d="M4126 284 c-11 -28 28 -74 63 -74 20 0 51 40 51 65 0 24 -3 25 -54
25 -40 0 -55 -4 -60 -16z" />
        <path d="M4300 271 c0 -35 38 -67 69 -58 15 4 18 -1 17 -30 -1 -27 5 -40 26
-56 23 -17 31 -19 53 -9 14 6 31 23 37 37 16 36 -17 80 -59 80 -27 0 -30 3
-29 30 1 30 0 30 -56 33 l-58 3 0 -30z" />
        <path d="M847 284 c-8 -8 1 -24 14 -24 5 0 9 7 9 15 0 15 -12 20 -23 9z" />
        <path d="M1022 276 c1 -10 8 -17 13 -17 15 1 12 24 -3 29 -9 3 -13 -2 -10 -12z" />
        <path d="M1192 273 c4 -21 33 -25 33 -3 0 8 -8 16 -18 18 -14 3 -18 -1 -15
-15z" />
        <path d="M1365 280 c-8 -14 3 -30 21 -30 8 0 14 9 14 20 0 21 -24 28 -35 10z" />
        <path d="M500 270 c0 -5 5 -10 10 -10 6 0 10 5 10 10 0 6 -4 10 -10 10 -5 0
-10 -4 -10 -10z" />
        <path d="M670 270 c0 -5 4 -10 9 -10 6 0 13 5 16 10 3 6 -1 10 -9 10 -9 0 -16
-4 -16 -10z" />
        <path d="M4070 227 c-47 -24 -43 -91 6 -103 48 -12 85 27 69 72 -12 33 -44 46
-75 31z" />
        <path d="M4232 224 c-45 -31 -19 -104 37 -104 56 0 79 59 38 98 -28 26 -45 27
-75 6z" />
        <path d="M3374 220 c-28 -11 -36 -43 -17 -69 16 -24 55 -28 73 -7 29 36 -13
93 -56 76z" />
        <path d="M3536 214 c-24 -24 -20 -61 9 -80 23 -15 27 -15 50 0 30 20 33 56 7
79 -23 21 -46 22 -66 1z" />
        <path d="M3707 212 c-24 -27 -21 -59 8 -78 51 -33 104 21 71 71 -20 30 -56 33
-79 7z" />
        <path d="M3874 205 c-13 -21 -15 -31 -6 -50 21 -45 93 -42 105 4 15 59 -65 97
-99 46z" />
        <path d="M2666 201 c-25 -28 -5 -63 32 -59 30 3 42 39 22 64 -17 19 -34 18
-54 -5z" />
        <path d="M2842 208 c-34 -34 6 -90 48 -68 35 19 20 80 -20 80 -9 0 -21 -5 -28
-12z" />
        <path d="M3012 208 c-19 -19 -14 -56 8 -68 43 -23 83 17 60 60 -12 22 -49 27
-68 8z" />
        <path d="M3180 200 c-27 -50 36 -95 71 -51 26 31 11 65 -29 69 -23 2 -34 -2
-42 -18z" />
        <path d="M1800 195 c-18 -21 -4 -47 22 -43 29 4 35 34 10 47 -15 8 -23 7 -32
-4z" />
        <path d="M1970 195 c-17 -21 -5 -45 24 -45 28 0 37 17 24 43 -11 21 -31 22
-48 2z" />
        <path d="M2147 204 c-13 -13 -7 -52 9 -58 22 -9 46 13 42 38 -3 21 -37 34 -51
20z" />
        <path d="M2314 195 c-14 -37 26 -69 53 -42 22 22 8 57 -23 57 -14 0 -27 -7
-30 -15z" />
        <path d="M2485 190 c-14 -44 44 -69 65 -29 9 15 8 24 -1 35 -18 21 -57 18 -64
-6z" />
        <path d="M1107 194 c-14 -14 -7 -35 11 -32 9 2 17 10 17 17 0 16 -18 25 -28
15z" />
        <path d="M1275 190 c-4 -6 -1 -17 5 -26 15 -18 42 0 33 22 -6 16 -29 19 -38 4z" />
        <path d="M1447 186 c-8 -20 20 -43 35 -28 14 14 3 42 -16 42 -7 0 -16 -6 -19
-14z" />
        <path d="M1624 185 c-4 -9 -2 -21 4 -27 15 -15 44 -1 40 19 -4 23 -36 29 -44
8z" />
        <path d="M410 180 c0 -5 5 -10 11 -10 5 0 7 5 4 10 -3 6 -8 10 -11 10 -2 0 -4
-4 -4 -10z" />
        <path d="M582 181 c4 -13 18 -16 19 -4 0 4 -5 9 -11 12 -7 2 -11 -2 -8 -8z" />
        <path d="M757 184 c-8 -8 1 -24 14 -24 5 0 9 7 9 15 0 15 -12 20 -23 9z" />
        <path d="M930 175 c0 -8 7 -15 15 -15 8 0 15 7 15 15 0 8 -7 15 -15 15 -8 0
-15 -7 -15 -15z" />
        <path d="M3809 127 c-48 -24 -29 -97 26 -97 34 0 60 41 45 69 -16 32 -42 42
-71 28z" />
        <path d="M3970 120 c-34 -34 -24 -71 21 -89 58 -21 97 58 47 93 -30 21 -44 20
-68 -4z" />
        <path d="M4152 133 c-24 -10 -34 -53 -18 -79 21 -31 52 -39 81 -20 61 40 6
127 -63 99z" />
        <path d="M4317 122 c-53 -58 28 -137 83 -82 24 24 25 48 4 78 -19 27 -64 29
-87 4z" />
        <path d="M3108 119 c-21 -12 -24 -49 -6 -67 21 -21 57 -14 70 14 11 23 10 29
-11 45 -27 22 -30 22 -53 8z" />
        <path d="M3277 112 c-22 -25 -21 -45 3 -67 29 -26 70 -7 70 33 0 50 -41 69
-73 34z" />
        <path d="M3444 105 c-15 -23 -15 -27 0 -50 28 -42 86 -23 86 29 0 49 -58 63
-86 21z" />
        <path d="M3622 118 c-15 -15 -16 -60 0 -76 18 -18 53 -14 73 8 27 30 10 74
-30 78 -17 2 -36 -3 -43 -10z" />
        <path d="M2410 105 c-20 -25 -8 -50 25 -50 36 0 47 31 19 52 -23 17 -29 16
-44 -2z" />
        <path d="M2582 108 c-18 -18 -14 -46 7 -58 11 -5 22 -10 25 -10 8 0 36 31 36
40 0 13 -30 40 -44 40 -6 0 -17 -5 -24 -12z" />
        <path d="M2750 100 c-22 -40 26 -80 58 -48 17 17 15 55 -4 62 -27 11 -43 7
-54 -14z" />
        <path d="M2924 106 c-3 -8 -4 -25 -2 -38 2 -18 9 -23 32 -23 36 0 56 27 40 53
-14 22 -62 28 -70 8z" />
        <path d="M1545 96 c-21 -15 -12 -36 16 -36 12 0 19 7 19 19 0 27 -13 33 -35
17z" />
        <path d="M1717 103 c-12 -11 -8 -41 7 -46 15 -6 36 11 36 29 0 6 -7 15 -16 18
-19 7 -19 7 -27 -1z" />
        <path d="M1887 103 c-13 -12 -7 -41 10 -47 9 -4 23 0 31 8 13 12 13 18 2 30
-13 17 -32 21 -43 9z" />
        <path d="M2056 94 c-9 -22 17 -49 39 -40 10 3 15 15 13 28 -4 29 -42 37 -52
12z" />
        <path d="M2232 97 c-16 -19 8 -50 34 -45 28 5 26 52 -2 56 -11 2 -26 -3 -32
-11z" />
        <path d="M846 93 c-11 -11 -6 -23 9 -23 8 0 15 4 15 9 0 13 -16 22 -24 14z" />
        <path d="M1022 86 c1 -10 8 -17 13 -17 15 1 12 24 -3 29 -9 3 -13 -2 -10 -12z" />
        <path d="M1194 89 c-10 -17 13 -36 27 -22 12 12 4 33 -11 33 -5 0 -12 -5 -16
-11z" />
        <path d="M1365 90 c-8 -14 3 -30 21 -30 8 0 14 9 14 20 0 21 -24 28 -35 10z" />
        <path d="M500 80 c0 -5 5 -10 10 -10 6 0 10 5 10 10 0 6 -4 10 -10 10 -5 0
-10 -4 -10 -10z" />
        <path d="M670 80 c0 -5 4 -10 9 -10 6 0 13 5 16 10 3 6 -1 10 -9 10 -9 0 -16
-4 -16 -10z" />
    </g>
</svg>