<?xml version="1.0" standalone="no"?>
<!DOCTYPE svg PUBLIC "-//W3C//DTD SVG 20010904//EN"
 "http://www.w3.org/TR/2001/REC-SVG-20010904/DTD/svg10.dtd">
<svg version="1.0" xmlns="http://www.w3.org/2000/svg"
 width="852.000000pt" height="232.000000pt" viewBox="0 0 852.000000 232.000000"
 preserveAspectRatio="xMidYMid meet">

<g transform="translate(0.000000,232.000000) scale(0.100000,-0.100000)"
fill="#000000" stroke="none">
<path d="M3299 1906 c-2 -2 -182 -7 -399 -10 -747 -13 -826 -15 -851 -20 -13
-3 -76 -7 -139 -10 -63 -3 -153 -9 -200 -15 -47 -6 -133 -9 -190 -6 -61 2
-107 -1 -111 -6 -3 -5 -77 -12 -165 -15 -87 -3 -184 -7 -214 -10 -30 -3 -80
-6 -110 -7 -30 -1 -59 -5 -65 -8 -5 -4 -27 -12 -48 -19 -35 -11 -38 -15 -32
-38 8 -34 -5 -40 -80 -35 -50 3 -75 -1 -115 -18 -40 -17 -57 -20 -83 -12 -18
5 -32 14 -32 20 0 19 -13 26 -40 19 -18 -5 -25 -13 -25 -30 0 -17 -5 -23 -17
-22 -12 0 -19 -7 -21 -22 -2 -12 -16 -30 -30 -39 -15 -9 -33 -24 -40 -32 -7
-9 -29 -21 -50 -27 l-37 -10 67 -8 c37 -4 71 -13 77 -20 8 -10 131 -12 578 -8
313 2 584 3 603 2 73 -3 97 -2 166 5 74 8 144 1 144 -15 0 -16 -33 -19 -217
-22 -101 -1 -183 -5 -183 -9 0 -3 -26 -12 -59 -18 -43 -8 -58 -16 -57 -27 1
-14 -15 -17 -94 -19 -53 -2 -102 0 -110 5 -11 7 -1 10 33 10 34 0 47 4 47 14
0 8 -4 17 -9 20 -14 9 -272 15 -294 7 -12 -4 -62 -4 -112 0 -80 8 -95 7 -138
-11 -35 -16 -52 -18 -66 -10 -27 14 -31 13 -31 -8 0 -29 -52 -81 -94 -95 -22
-8 -43 -20 -46 -28 -4 -8 -12 -24 -18 -36 -20 -38 -15 -43 51 -43 101 0 167
-11 167 -27 0 -10 -6 -12 -20 -8 -11 3 -20 2 -20 -3 0 -5 -9 -12 -20 -15 -12
-3 -20 -14 -20 -27 0 -13 -8 -24 -20 -27 -11 -3 -20 -11 -20 -19 0 -11 5 -11
25 -2 31 14 43 4 24 -19 -13 -15 -12 -16 6 -8 11 4 35 8 53 7 17 -1 32 2 32 7
0 12 53 24 110 24 25 0 35 2 23 4 -24 5 -31 27 -12 38 5 4 103 7 217 7 114 0
216 2 226 5 42 11 -19 27 -124 33 -104 5 -105 5 -105 30 0 22 5 26 45 32 25 3
53 4 64 1 12 -3 16 -1 12 6 -5 7 -47 12 -109 13 l-102 1 80 7 c44 4 130 4 190
1 61 -3 166 -5 233 -5 116 1 123 0 119 -17 -4 -14 0 -19 13 -19 24 0 37 20 20
30 -10 6 -10 8 1 12 8 3 10 11 6 22 -6 16 -26 17 -269 15 -290 -3 -476 7 -459
24 20 20 12 29 -22 25 -32 -3 -37 0 -37 26 0 16 136 42 175 32 49 -12 21 -31
-56 -36 -50 -4 -66 -8 -49 -12 105 -28 209 -33 515 -23 362 11 420 14 442 26
18 10 25 9 38 -5 9 -9 31 -16 48 -16 18 0 62 -3 98 -6 60 -6 69 -5 85 15 18
21 44 27 57 15 4 -4 33 -8 66 -9 69 -3 81 -8 81 -39 0 -13 9 -35 21 -50 11
-14 19 -26 17 -27 -32 -7 -48 -7 -53 1 -10 17 -32 11 -80 -21 -26 -18 -44 -37
-43 -46 3 -16 2 -17 -83 -56 -42 -19 -60 -22 -73 -15 -13 7 -31 7 -58 -1 -21
-7 -60 -11 -86 -11 -26 1 -65 -4 -87 -9 -23 -6 -219 -13 -465 -17 -523 -7
-613 -12 -618 -36 -2 -13 3 -18 17 -18 12 0 21 -5 21 -11 0 -15 -91 -109 -106
-109 -6 0 -22 -9 -35 -20 l-24 -21 50 7 c28 4 61 15 74 25 26 21 43 23 69 10
54 -27 73 -33 95 -27 16 4 31 -1 46 -13 18 -16 28 -18 54 -10 18 5 63 11 100
14 53 3 69 1 74 -10 7 -21 39 -19 62 4 20 20 19 20 -37 26 -31 3 -66 10 -77
15 -11 5 -27 11 -35 13 -11 3 -8 8 10 15 22 9 23 11 7 17 -9 4 -23 2 -30 -3
-8 -7 -18 -7 -27 -2 -11 7 -8 11 13 19 16 6 34 11 40 11 7 1 1 8 -13 16 -24
15 -23 15 27 10 29 -3 55 -1 58 5 4 5 -40 9 -111 9 -75 0 -115 3 -108 10 11
11 21 12 323 10 250 -1 333 -11 181 -21 l-85 -5 91 -2 c71 -2 94 1 104 13 7 8
21 15 31 15 22 0 24 11 7 28 -15 15 -7 15 29 1 48 -18 136 -20 155 -2 10 8 24
13 33 9 13 -5 13 -8 -2 -27 -25 -29 -62 -42 -79 -28 -11 9 -18 8 -32 -4 -12
-11 -51 -19 -122 -25 -58 -5 -86 -10 -63 -11 55 -1 68 -21 14 -21 -28 0 -41
-4 -41 -14 0 -20 23 -26 98 -26 l67 0 -34 27 c-40 32 -28 42 42 35 37 -3 47
-8 43 -18 -3 -9 4 -19 19 -26 28 -13 32 -23 10 -32 -29 -11 -15 -21 33 -23
110 -4 195 -33 97 -33 -31 0 -57 -7 -76 -21 -16 -11 -34 -17 -41 -13 -10 7
-121 8 -308 3 l-75 -2 55 -7 c30 -5 117 -8 192 -9 126 -1 172 -10 132 -25 -9
-3 -65 -6 -125 -6 -66 0 -109 -4 -109 -10 0 -5 -9 -10 -20 -10 -11 0 -20 5
-20 10 0 6 -7 10 -15 10 -8 0 -15 -4 -15 -10 0 -5 -8 -10 -17 -11 -15 0 -15
-1 2 -8 11 -5 68 -11 127 -15 59 -4 133 -11 165 -17 55 -10 58 -10 76 15 10
14 25 26 33 26 8 0 14 5 14 10 0 6 -13 10 -30 10 -22 0 -30 5 -30 18 0 37 72
56 125 32 11 -4 29 -12 40 -16 15 -5 5 -10 -40 -19 -33 -7 -50 -13 -38 -14 13
0 32 -10 42 -20 17 -17 35 -20 135 -20 66 -1 117 3 121 9 10 17 105 12 111 -5
4 -10 14 -13 29 -9 14 3 34 -1 48 -11 14 -9 40 -17 59 -17 18 -1 47 -7 65 -15
18 -7 63 -13 101 -13 75 0 114 -14 128 -45 5 -11 20 -21 34 -22 14 -1 18 0 8
3 -27 8 -22 24 7 24 14 0 25 -4 25 -9 0 -14 140 -23 156 -10 9 7 42 9 96 5 46
-3 119 -8 163 -11 63 -4 75 -3 55 6 -47 21 -279 41 -324 28 -21 -6 -39 -4 -59
6 -16 8 -34 12 -39 9 -5 -3 -16 0 -25 7 -13 12 -12 14 11 20 17 5 37 2 54 -7
35 -18 80 -18 114 0 20 11 53 14 119 11 67 -3 89 -1 86 8 -2 7 -21 12 -43 13
-61 1 -74 3 -74 14 0 6 31 10 78 9 67 -2 80 -5 104 -27 17 -16 33 -22 44 -18
23 9 114 -4 114 -17 0 -5 -12 -7 -28 -4 -27 5 -62 -6 -51 -17 8 -9 170 -20
269 -18 89 1 94 0 73 -15 -33 -22 -29 -30 21 -37 24 -4 50 -14 56 -21 13 -16
40 -20 40 -7 0 4 -5 13 -12 20 -9 9 8 12 80 12 55 0 92 4 92 10 0 11 -24 13
-130 11 -69 -2 -113 9 -98 24 10 10 539 6 581 -4 30 -7 39 -6 44 5 3 8 16 14
29 14 15 0 24 6 24 15 0 20 6 19 42 -7 26 -18 36 -20 68 -11 25 6 81 6 164 0
93 -7 130 -7 139 2 8 8 7 11 -6 11 -9 0 -17 5 -17 11 0 7 9 9 23 4 54 -16 86
-22 91 -17 16 16 2 31 -31 35 -21 2 5 3 57 2 59 -1 116 -8 150 -19 30 -10 99
-22 153 -27 54 -4 102 -11 107 -14 18 -11 32 5 19 21 -17 21 4 18 51 -6 38
-19 48 -20 237 -10 232 12 420 12 501 -1 31 -5 78 -9 104 -9 26 1 55 -4 66
-11 11 -7 30 -9 47 -5 24 6 26 9 14 22 -10 9 -39 15 -84 16 -46 1 -89 9 -127
25 -67 27 -79 28 -72 8 7 -18 10 -18 -140 -15 -76 1 -129 7 -150 16 -30 13
-27 14 49 12 44 -1 93 -6 108 -11 19 -6 32 -6 39 1 10 10 -115 29 -160 24 -15
-2 -21 1 -17 7 15 25 385 -1 385 -26 0 -7 9 -13 21 -13 14 0 19 5 17 18 -2 13
-15 18 -59 20 -54 3 -56 4 -57 32 0 17 4 30 9 30 5 0 9 -4 9 -9 0 -4 27 -11
60 -14 34 -3 67 -10 74 -16 10 -8 25 -7 57 4 33 12 75 15 173 13 97 -2 130 0
133 10 6 15 40 16 45 1 2 -7 20 -13 38 -14 19 -1 57 -7 85 -13 33 -7 56 -7 68
0 13 6 23 6 33 -3 21 -18 63 6 57 32 -4 16 0 19 27 19 29 0 32 -3 28 -25 -6
-31 16 -34 34 -5 8 12 24 20 39 20 17 0 35 11 53 32 25 31 27 32 62 19 25 -9
59 -11 110 -6 69 6 72 8 61 26 -9 15 -8 22 4 35 13 12 25 14 59 7 45 -9 68
-33 31 -33 -11 0 -23 -5 -27 -11 -14 -23 18 -33 107 -35 l90 -1 31 44 c17 23
37 43 45 43 7 0 13 9 13 19 0 10 8 22 17 25 31 12 -2 24 -83 29 -81 5 -133 -6
-86 -19 34 -10 28 -34 -9 -34 -18 0 -49 -5 -70 -11 -30 -9 -45 -9 -70 1 -29
13 -30 14 -13 27 10 7 39 13 66 13 26 0 48 5 48 10 0 6 -37 10 -91 10 -76 0
-90 2 -86 15 4 8 2 17 -2 20 -16 9 -1 40 27 53 15 7 66 12 120 12 84 0 93 2
90 18 -3 14 -16 17 -86 20 -71 2 -82 5 -80 20 2 12 -10 20 -49 31 -29 7 -53
18 -53 22 0 5 47 9 104 9 80 0 105 3 109 14 3 8 21 17 39 21 28 7 65 24 138
64 8 5 28 14 43 20 23 9 26 14 17 30 -15 30 -12 47 13 74 18 20 37 26 91 32
60 7 67 9 52 21 -12 8 -16 19 -11 32 8 27 -9 31 -126 37 -52 2 -156 7 -231 11
-136 6 -138 6 -138 -15 0 -16 -6 -21 -27 -21 -16 0 -52 -3 -81 -7 -53 -6 -53
-6 -47 19 4 15 2 29 -4 33 -8 4 -1 17 18 34 30 28 31 28 128 22 114 -8 146 -4
139 15 -4 11 7 14 48 14 50 0 54 2 59 26 3 20 -2 33 -21 50 -21 20 -36 24 -87
24 -43 0 -66 5 -75 15 -11 13 -8 15 22 15 19 0 43 6 54 14 18 14 18 15 -9 25
-16 6 -61 11 -100 10 l-72 -1 34 -15 c66 -28 -11 -36 -168 -17 -49 6 -39 23
14 24 36 0 75 10 75 19 0 5 -74 8 -333 10 -51 1 -86 5 -82 10 7 13 -54 32
-117 36 -29 2 -174 6 -323 9 -1006 22 -1020 23 -1100 18 -22 -1 -477 0 -1011
3 -534 2 -973 3 -975 1z m3331 -86 c-20 -13 -140 -13 -140 0 0 6 32 10 78 10
53 0 72 -3 62 -10z m652 -78 c51 -13 25 -26 -47 -23 -38 2 -81 2 -95 2 -57 -2
-170 11 -164 20 3 5 16 9 29 9 13 0 26 4 29 8 5 8 202 -4 248 -16z m-583 -141
c9 -6 -12 -11 -62 -16 -75 -7 -103 -2 -92 16 8 12 135 12 154 0z m-225 -46 c5
-13 -11 -15 -104 -15 -99 0 -130 6 -113 24 3 3 52 6 109 6 81 0 103 -3 108
-15z m70 9 c26 -10 18 -24 -14 -24 -20 0 -30 5 -30 15 0 16 17 19 44 9z m-322
-19 c-3 -15 -75 -18 -179 -9 -107 10 -69 23 60 21 75 -1 121 -6 119 -12z
m-5562 -415 c12 -8 9 -10 -13 -10 -16 0 -26 4 -22 10 8 12 16 12 35 0z m6580
-30 c0 -5 -13 -10 -29 -10 -17 0 -33 5 -36 10 -4 6 8 10 29 10 20 0 36 -4 36
-10z m-340 -14 c43 -18 23 -29 -38 -20 -63 9 -74 18 -32 25 19 4 36 7 36 8 1
0 16 -5 34 -13z m-5093 -22 c-3 -3 -12 -4 -19 -1 -8 3 -5 6 6 6 11 1 17 -2 13
-5z m4853 -14 c0 -5 -11 -10 -24 -10 -14 0 -28 5 -31 10 -4 6 7 10 24 10 17 0
31 -4 31 -10z m383 -46 c80 -11 55 -27 -30 -19 -86 8 -88 9 -78 25 4 7 18 9
34 6 14 -3 47 -9 74 -12z m-67 -45 c5 -8 -184 -19 -203 -12 -12 5 -12 7 -1 14
14 10 198 8 204 -2z m264 -19 c0 -5 -11 -10 -25 -10 -14 0 -25 5 -25 10 0 6
11 10 25 10 14 0 25 -4 25 -10z m-4140 -30 c0 -13 -20 -13 -40 0 -12 8 -9 10
13 10 15 0 27 -4 27 -10z m3778 -7 c2 -9 -10 -13 -42 -13 -35 0 -46 4 -46 16
0 12 9 14 42 12 23 -2 43 -9 46 -15z m172 7 c0 -5 -11 -10 -24 -10 -14 0 -28
5 -31 10 -4 6 7 10 24 10 17 0 31 -4 31 -10z m567 4 c-3 -3 -12 -4 -19 -1 -8
3 -5 6 6 6 11 1 17 -2 13 -5z m-1463 -23 c51 -7 94 -7 120 -1 61 14 72 12 91
-16 20 -30 12 -43 -15 -26 -16 10 -24 10 -40 0 -17 -11 -22 -10 -29 1 -7 11
-50 14 -218 15 -182 1 -212 3 -242 19 -18 10 -42 17 -52 14 -11 -3 -19 -1 -19
4 0 12 292 5 404 -10z m1051 -2 c4 -6 5 -13 1 -16 -8 -8 -56 6 -56 17 0 13 47
13 55 -1z m-325 -50 c27 -36 22 -44 -16 -27 -16 6 -33 13 -39 14 -5 0 -26 7
-45 15 l-35 14 40 6 c69 11 73 10 95 -22z m274 25 c26 -10 18 -24 -14 -24 -29
0 -38 9 -23 23 8 9 17 9 37 1z m-989 -45 c5 -5 -6 -9 -27 -9 -20 0 -41 7 -49
16 -11 14 -9 15 27 9 21 -4 43 -11 49 -16z m462 -25 c-3 -3 -12 -4 -19 -1 -8
3 -5 6 6 6 11 1 17 -2 13 -5z m173 -14 c0 -5 -6 -10 -14 -10 -8 0 -18 5 -21
10 -3 6 3 10 14 10 12 0 21 -4 21 -10z m-1120 -21 c0 -5 -11 -9 -25 -9 -28 0
-34 16 -7 23 20 4 32 -1 32 -14z m124 -4 c3 -9 0 -15 -9 -15 -8 0 -15 7 -15
15 0 8 4 15 9 15 5 0 11 -7 15 -15z m-3329 -35 c3 -5 -3 -10 -14 -10 -12 0
-21 5 -21 10 0 6 6 10 14 10 8 0 18 -4 21 -10z m384 1 c9 -6 4 -10 -18 -13
-31 -5 -47 3 -34 16 9 9 35 7 52 -3z m2791 -1 c72 -8 44 -12 -75 -12 -90 1
-87 0 -80 12 7 11 58 11 155 0z m-3045 -10 c-3 -5 -11 -10 -16 -10 -6 0 -7 5
-4 10 3 6 11 10 16 10 6 0 7 -4 4 -10z m2120 -1 c10 -15 -1 -23 -20 -15 -9 3
-13 10 -10 16 8 13 22 13 30 -1z m-2030 -9 c3 -5 -3 -10 -14 -10 -12 0 -21 5
-21 10 0 6 6 10 14 10 8 0 18 -4 21 -10z m814 1 c11 -7 5 -11 -22 -16 -36 -7
-57 -1 -57 16 0 12 60 12 79 0z m335 -22 c16 -5 47 -9 70 -10 37 0 39 -1 18
-11 -17 -9 -39 -8 -85 0 -34 6 -79 14 -99 18 -21 3 -38 10 -38 14 0 9 95 2
134 -11z m166 1 c0 -5 -6 -10 -14 -10 -8 0 -18 5 -21 10 -3 6 3 10 14 10 12 0
21 -4 21 -10z m161 -19 c19 -8 9 -10 -47 -10 -55 -1 -75 3 -85 16 -13 15 -9
16 47 10 33 -3 71 -11 85 -16z m949 9 c0 -5 -7 -10 -15 -10 -8 0 -15 5 -15 10
0 6 7 10 15 10 8 0 15 -4 15 -10z m80 -10 c0 -5 -9 -10 -19 -10 -11 0 -23 5
-26 10 -4 6 5 10 19 10 14 0 26 -4 26 -10z"/>
<path d="M510 1765 c0 -16 12 -18 48 -9 34 10 26 24 -13 24 -24 0 -35 -5 -35
-15z"/>
<path d="M1248 1423 c6 -2 18 -2 25 0 6 3 1 5 -13 5 -14 0 -19 -2 -12 -5z"/>
<path d="M1935 1330 c-4 -6 16 -11 57 -12 35 0 90 -3 123 -4 64 -4 105 2 105
14 0 12 -277 14 -285 2z"/>
<path d="M1536 1202 c-15 -8 -25 -16 -23 -19 16 -15 132 -19 226 -7 63 7 146
10 204 7 88 -5 97 -4 91 10 -3 10 -9 17 -13 18 -3 0 -107 1 -231 2 -171 2
-232 -1 -254 -11z"/>
<path d="M8169 1127 c-14 -7 -24 -18 -22 -24 3 -8 -4 -13 -16 -13 -11 0 -23
-4 -26 -10 -3 -5 -26 -10 -49 -10 -24 0 -66 -7 -92 -15 -27 -8 -67 -17 -89
-21 l-40 -7 53 -15 c28 -8 52 -19 52 -23 0 -5 -25 -9 -56 -9 -49 0 -55 -2 -44
-15 10 -13 9 -15 -9 -15 -12 0 -24 7 -27 15 -5 11 -21 15 -63 14 -45 -1 -50
-2 -26 -8 17 -4 42 -15 57 -25 21 -14 57 -19 162 -23 l135 -6 31 27 c18 15 44
26 60 26 19 0 33 7 40 20 6 11 18 20 26 20 21 0 12 23 -14 36 -19 9 -20 12 -6
26 11 11 13 21 5 41 -6 15 -12 27 -13 26 -2 0 -15 -6 -29 -12z"/>
<path d="M1320 980 c0 -5 9 -10 20 -10 11 0 20 5 20 10 0 6 -9 10 -20 10 -11
0 -20 -4 -20 -10z"/>
<path d="M1325 950 c3 -5 12 -7 20 -3 21 7 19 13 -6 13 -11 0 -18 -4 -14 -10z"/>
<path d="M1218 923 c6 -2 18 -2 25 0 6 3 1 5 -13 5 -14 0 -19 -2 -12 -5z"/>
<path d="M970 850 c0 -5 15 -10 33 -10 24 0 28 3 17 10 -20 13 -50 13 -50 0z"/>
<path d="M734 815 c-19 -14 -19 -14 1 -14 11 0 34 6 50 14 l30 13 -31 1 c-16
1 -39 -6 -50 -14z"/>
<path d="M1075 821 c-3 -5 -2 -12 3 -15 12 -7 52 4 52 15 0 12 -47 12 -55 0z"/>
<path d="M7270 797 c0 -9 -7 -17 -15 -17 -8 0 -19 -9 -25 -21 -14 -24 2 -49
31 -49 10 0 21 -4 24 -10 4 -6 -8 -10 -29 -10 -19 0 -38 -4 -41 -10 -3 -5 -28
-12 -55 -16 -27 -4 -51 -13 -54 -20 -3 -8 -20 -14 -38 -15 -18 0 -27 -3 -20
-6 24 -10 11 -23 -23 -23 -42 0 -47 -17 -7 -26 15 -3 39 -10 54 -16 30 -11 48
-4 48 18 0 21 38 17 45 -6 7 -23 32 -25 59 -5 11 8 28 15 38 15 10 0 18 5 18
10 0 6 11 16 25 22 28 13 32 33 10 46 -11 6 -2 12 35 21 56 14 79 41 55 61 -8
7 -15 21 -15 31 0 16 -8 19 -48 19 -26 0 -53 5 -60 12 -9 9 -12 8 -12 -5z"/>
<path d="M1140 740 c0 -5 23 -10 51 -10 31 0 48 4 44 10 -3 6 -26 10 -51 10
-24 0 -44 -4 -44 -10z"/>
<path d="M6490 710 c36 -12 98 -12 105 0 4 6 -19 10 -62 9 -49 -1 -61 -3 -43
-9z"/>
<path d="M2018 703 c12 -2 30 -2 40 0 9 3 -1 5 -23 4 -22 0 -30 -2 -17 -4z"/>
<path d="M6430 692 c0 -15 40 -20 100 -12 l55 7 -55 2 c-30 1 -65 4 -77 7 -13
4 -23 2 -23 -4z"/>
<path d="M4860 640 c0 -5 11 -10 25 -10 14 0 25 5 25 10 0 6 -11 10 -25 10
-14 0 -25 -4 -25 -10z"/>
<path d="M4060 590 c0 -13 70 -13 90 0 11 7 0 10 -37 10 -29 0 -53 -4 -53 -10z"/>
<path d="M5068 593 c7 -3 16 -2 19 1 4 3 -2 6 -13 5 -11 0 -14 -3 -6 -6z"/>
<path d="M5410 590 c0 -5 14 -10 30 -10 17 0 30 5 30 10 0 6 -13 10 -30 10
-16 0 -30 -4 -30 -10z"/>
<path d="M4816 552 c-8 -13 40 -19 84 -11 l35 6 -35 2 c-19 1 -45 4 -56 7 -12
3 -24 1 -28 -4z"/>
<path d="M5055 551 c-10 -17 7 -19 210 -24 l190 -5 -125 12 c-69 7 -131 16
-138 20 -7 4 -19 2 -27 -4 -14 -12 -49 -10 -86 5 -10 3 -20 2 -24 -4z"/>
<path d="M4028 507 c24 -7 36 -7 44 1 9 9 1 12 -32 11 l-45 -1 33 -11z"/>
</g>
</svg>
